<!-- <svg xmlns="http://www.w3.org/2000/svg" width="52" height="52" xmlns:v="https://vecta.io/nano">
  <style>
  path {
    fill: black;
  }

  @media (prefers-color-scheme: dark) {
    path {
      fill: white
    }
  }
  </style>
  <path d="M52 39a13.02 13.02 0 0 1-13-13 13.02 13.02 0 0 1 13-13v26zM26 13L13 26l13 13V13z" />
  <path d="M13 39L0 52V13L13 0V39Z" />
</svg> -->

<svg xmlns="http://www.w3.org/2000/svg" fill="none" viewBox="0 0 52 52">
  <g clip-path="url(#a)">
    <path fill="#fff" d="M-.788 0h53.576v52H-.788z"/>
    <path fill="#2383F3" d="M13.439 34.24c0 2.02-1.598 3.659-3.568 3.659s-3.568-1.639-3.568-3.66 1.597-3.66 3.568-3.66c1.97 0 3.568 1.639 3.568 3.66Zm32.258 0c0 2.02-1.598 3.659-3.568 3.659s-3.568-1.639-3.568-3.66 1.598-3.66 3.568-3.66 3.568 1.639 3.568 3.66Zm-21.08-5.428-4.612 8.365a.469.469 0 0 1-.84-.027L8.345 14.347h10.25l6.022 14.465Zm11.53-14.465h-9.55v23.636h9.695l-.145-23.636Z"/>
  </g>
  <defs>
    <clipPath id="a">
      <path fill="#fff" d="M0 0h52v52H0z"/>
    </clipPath>
  </defs>
</svg>