<svg version="1" xmlns="http://www.w3.org/2000/svg" width="682.667" height="682.667" viewBox="0 0 512.000000 512.000000"><path d="M63.3 64.6L0 128v191.5C0 424.8.2 511 .5 511s29.1-28.6 64-63.5L128 384V192.5c0-105.3-.3-191.5-.7-191.4-.5 0-29.3 28.6-64 63.5zM192.3 191.6C157.5 226.5 129 255.4 129 256c0 .6 28.6 29.6 63.5 64.5L256 384V256c0-70.4-.1-128-.2-127.9-.2 0-28.8 28.6-63.5 63.5zM491.3 129.7c-46.3 7.6-85.5 41-100.5 85.6-1.6 5-3.1 9.7-3.3 10.6-.2.9-.9 4.5-1.6 8.1-1.4 6.8-1.9 30.9-.7 39.5 1.5 11.5 6.4 27.9 11.5 37.9 21.2 42.4 60.2 68.8 106.8 72.2l8.5.6V128l-6.4.2c-3.5.1-9.9.8-14.3 1.5z"/></svg>