<?xml version="1.0" standalone="no"?>
<!DOCTYPE svg PUBLIC "-//W3C//DTD SVG 20010904//EN"
 "http://www.w3.org/TR/2001/REC-SVG-20010904/DTD/svg10.dtd">
<svg version="1.0" xmlns="http://www.w3.org/2000/svg"
 width="1500.000000pt" height="1500.000000pt" viewBox="0 0 1500.000000 1500.000000"
 preserveAspectRatio="xMidYMid meet">
<metadata>
Created by potrace 1.14, written by Peter Selinger 2001-2017
</metadata>
<g transform="translate(0.000000,1500.000000) scale(0.100000,-0.100000)"
fill="#000000" stroke="none">
<path d="M0 7500 l0 -7500 2339 0 2338 0 12 93 c7 50 16 132 22 182 25 231 30
274 39 325 6 30 13 84 16 120 3 36 9 85 14 110 12 58 48 307 55 385 3 33 17
148 31 255 14 107 28 218 30 245 2 28 7 75 9 105 3 30 6 65 7 78 1 12 5 22 8
22 4 0 7 6 8 13 0 6 3 42 5 79 2 38 10 74 16 82 8 9 8 16 2 20 -6 4 -7 15 -1
30 4 12 11 38 14 58 3 19 8 42 12 51 4 11 1 17 -7 17 -11 0 -11 3 1 10 8 5 12
10 9 10 -4 0 3 40 16 89 13 54 19 94 14 100 -5 6 -6 8 -2 5 7 -5 12 19 43 216
6 41 14 82 17 90 7 18 9 27 16 65 3 17 11 53 17 80 7 28 13 66 15 85 2 19 4
35 5 35 2 0 7 22 19 80 5 28 15 68 21 90 6 22 16 60 22 85 6 25 14 50 18 55 5
6 11 24 13 40 6 34 65 222 96 305 11 30 27 75 36 100 25 74 47 120 57 120 4 0
7 3 6 7 -1 5 6 21 17 38 20 30 23 92 11 215 -3 25 -1 72 4 105 5 33 12 103 15
155 12 191 28 329 55 475 11 55 21 127 23 160 3 38 15 82 33 120 16 34 30 84
32 115 2 30 10 62 17 70 12 15 60 200 70 273 4 22 11 37 20 37 8 0 21 10 29
22 13 18 16 53 16 178 0 189 -17 430 -32 448 -8 9 -8 19 1 36 7 12 12 29 10
37 -4 25 13 69 24 62 6 -3 7 -1 3 6 -4 6 -11 9 -15 6 -5 -2 -13 7 -20 21 -8
18 -8 23 0 18 7 -4 9 1 7 12 -2 11 -11 18 -20 18 -10 -1 -16 1 -16 5 2 7 -12
81 -27 141 -3 11 -7 30 -10 41 -5 25 -12 34 -28 34 -7 0 -13 9 -15 20 -2 15
-1 17 6 6 6 -8 15 -10 22 -6 10 6 9 11 -5 22 -14 9 -15 13 -4 13 12 0 12 2 -1
10 -9 6 -17 5 -21 -2 -4 -6 -8 22 -8 63 -1 104 -25 230 -45 241 -9 5 -16 16
-16 23 0 8 -3 15 -7 15 -5 0 -7 21 -6 47 4 91 -30 112 -195 119 -104 4 -180
38 -270 119 -72 66 -107 121 -117 185 -12 76 -104 481 -125 551 -11 37 -27 72
-35 79 -8 7 -15 28 -15 46 0 39 -48 186 -64 196 -35 23 -57 342 -32 451 9 38
16 79 16 93 0 26 60 93 132 148 35 26 42 28 95 21 69 -8 121 -29 192 -78 67
-47 91 -54 106 -33 18 25 48 19 92 -16 88 -71 143 -160 163 -263 7 -33 16 -65
21 -71 5 -6 7 -13 4 -15 -2 -3 4 -5 14 -6 13 -1 24 11 35 41 9 23 16 49 16 59
0 9 4 17 9 17 15 0 39 96 51 205 13 120 42 252 78 359 30 88 55 120 233 302
59 62 106 114 103 117 -3 3 2 31 11 63 21 72 24 214 5 250 -11 19 -11 30 -3
43 7 11 8 33 3 59 -4 23 -5 42 -1 42 3 0 0 4 -7 9 -20 12 -42 84 -31 98 7 8 4
15 -8 22 -10 6 -13 11 -6 11 6 0 10 9 8 20 -2 11 0 20 5 20 4 0 13 14 19 30 8
24 7 29 -2 23 -7 -4 -7 0 2 10 7 9 10 17 6 17 -5 0 0 10 11 22 12 13 13 18 4
13 -8 -5 -3 6 13 24 15 18 27 39 27 46 0 14 -34 38 -42 30 -2 -2 -4 4 -5 14
-1 11 15 29 44 46 24 16 50 36 56 44 7 9 30 31 52 50 44 38 50 54 27 73 -13
11 -14 11 -7 -1 5 -10 4 -12 -3 -7 -18 11 -14 26 6 27 14 0 14 2 -3 9 -17 7
-17 9 -3 9 10 1 22 9 27 20 8 14 19 17 46 14 30 -3 38 0 42 17 3 11 9 17 14
14 5 -3 9 -1 9 5 0 5 9 8 20 6 11 -2 20 2 20 8 0 8 3 7 9 -2 5 -7 13 -11 19
-7 6 3 14 2 17 -4 4 -7 11 -8 18 -1 12 9 41 15 62 12 6 -1 3 -6 -5 -12 -16
-11 -12 -11 70 12 19 5 55 11 80 13 25 2 57 8 71 14 14 6 44 8 67 6 32 -3 43
0 50 14 11 20 5 45 -9 36 -5 -3 -9 0 -9 6 0 6 -5 8 -10 5 -6 -4 -7 -12 -4 -18
4 -7 3 -8 -1 -4 -5 4 -10 15 -11 23 -1 9 0 13 3 10 4 -3 13 0 21 7 13 10 14 9
8 -2 -6 -10 -4 -12 10 -8 11 3 35 8 54 11 19 4 53 11 75 18 63 18 273 24 444
14 95 -6 111 -10 185 -47 44 -22 94 -49 111 -59 18 -11 35 -17 38 -13 4 3 7 2
7 -4 0 -10 65 -11 75 -1 4 4 28 0 53 -8 26 -7 55 -11 66 -8 10 4 22 0 27 -7 6
-10 11 -11 17 -3 7 11 23 11 69 -1 21 -5 23 -2 23 30 0 32 2 35 24 29 17 -4
30 0 41 14 11 12 25 18 37 14 14 -3 26 3 38 18 34 46 164 77 189 46 9 -10 25
-13 55 -10 31 4 46 1 55 -10 8 -9 25 -16 40 -16 14 0 35 -7 45 -15 14 -11 23
-12 33 -4 10 9 24 7 57 -5 23 -9 50 -14 58 -11 9 4 19 2 23 -4 4 -8 12 -8 25
-1 16 9 26 4 57 -25 20 -19 44 -35 53 -35 9 0 25 -7 36 -15 21 -16 60 -20 68
-6 10 15 108 5 118 -12 5 -9 15 -14 22 -11 7 3 31 -6 51 -21 33 -22 46 -25 91
-20 62 6 119 -14 127 -45 3 -11 13 -20 24 -21 10 0 28 -2 40 -3 12 -1 20 1 17
5 -2 4 0 11 6 14 6 4 9 1 8 -6 -2 -8 10 -14 32 -15 81 -4 80 -3 80 -27 0 -13
3 -27 8 -31 4 -4 7 -13 7 -19 0 -5 14 -18 30 -27 22 -13 29 -23 27 -41 -1 -14
5 -29 15 -36 13 -10 14 -13 2 -13 -12 0 -12 -2 1 -10 12 -8 12 -10 -5 -11 -17
-1 -16 -2 5 -9 14 -4 19 -8 12 -9 -7 -1 -10 -6 -7 -11 4 -6 10 -8 14 -6 4 3 7
-6 7 -19 0 -13 -4 -21 -8 -19 -5 3 -6 10 -3 15 4 5 1 9 -5 9 -7 0 -9 -7 -6
-16 3 -9 6 -20 6 -25 0 -6 5 -7 10 -4 13 8 8 -18 -5 -27 -5 -4 -10 -15 -11
-25 -1 -10 -4 -28 -8 -40 -4 -12 -2 -24 3 -28 6 -3 8 -18 5 -33 -3 -15 3 -59
14 -98 15 -53 17 -75 9 -83 -8 -8 -8 -25 -1 -60 6 -28 7 -48 4 -46 -35 22 -31
-404 4 -480 14 -30 32 -123 56 -280 7 -44 19 -98 28 -120 14 -34 16 -90 17
-350 1 -282 5 -363 21 -492 5 -43 19 -59 21 -25 7 102 17 181 24 197 23 50 70
129 81 137 16 10 28 10 27 1 -1 -5 -1 -16 0 -26 1 -16 3 -16 31 -2 17 9 30 19
30 24 0 12 69 40 108 43 6 1 12 5 12 10 0 5 4 7 9 3 6 -3 25 10 43 29 l32 34
20 -21 19 -22 -6 23 c-8 32 0 27 16 -10 31 -73 38 -91 32 -96 -3 -3 -5 0 -5 6
0 7 -4 12 -9 12 -5 0 -8 -8 -7 -17 0 -11 -5 -17 -14 -14 -15 4 -60 3 -83 -2
-6 -1 -20 -10 -31 -19 -11 -10 -25 -18 -30 -18 -6 0 -25 -18 -43 -39 -31 -37
-32 -41 -39 -167 -6 -115 -5 -132 10 -147 13 -12 14 -17 4 -17 -10 0 -9 -3 2
-10 8 -5 10 -10 4 -10 -6 0 -11 -6 -11 -14 0 -20 29 -13 38 10 5 13 8 14 9 4
0 -8 7 -1 14 15 7 17 11 33 9 38 -2 4 0 7 6 7 5 0 8 8 7 18 -2 9 5 23 16 30
10 8 15 19 11 25 -5 9 -3 9 8 0 15 -12 17 -54 5 -88 -19 -50 -40 -93 -67 -133
-16 -24 -29 -51 -29 -61 0 -10 -15 -33 -33 -52 -26 -27 -39 -54 -56 -119 -12
-47 -42 -150 -66 -230 -25 -80 -52 -194 -60 -255 -28 -195 -41 -227 -120 -285
-30 -22 -57 -40 -61 -40 -4 0 -22 -15 -39 -33 -33 -34 -49 -84 -61 -187 -7
-57 -50 -228 -69 -275 -9 -19 -13 -35 -10 -35 3 0 -2 -11 -10 -24 -9 -14 -15
-30 -14 -38 2 -7 -10 -39 -25 -71 -15 -32 -29 -63 -30 -70 -1 -7 -8 -23 -16
-37 -8 -14 -19 -38 -25 -54 -5 -16 -16 -32 -24 -34 -8 -3 -11 0 -7 7 4 6 -5
22 -20 36 -26 24 -28 24 -46 9 -12 -11 -18 -13 -18 -5 0 7 -5 9 -12 5 -7 -4
-10 -4 -6 1 4 4 3 14 -3 22 -9 9 -8 13 0 13 7 0 3 10 -8 21 -18 19 -19 24 -6
42 17 24 10 65 -14 85 -12 11 -13 12 -1 6 12 -7 13 -5 3 8 -7 8 -10 18 -6 21
3 4 4 7 0 7 -3 0 -17 -11 -30 -24 -14 -14 -28 -22 -31 -18 -21 20 -76 -3 -76
-32 0 -7 -12 -13 -27 -14 -15 -1 -32 -7 -38 -14 -7 -8 -6 -9 4 -3 9 5 12 4 8
-3 -6 -8 -35 -10 -44 -2 -2 2 -8 3 -15 4 -6 0 -12 15 -12 32 -1 51 -29 72 -65
50 -10 -7 -12 -5 -6 5 5 8 0 7 -11 -3 -16 -14 -23 -15 -33 -5 -10 9 -11 8 -6
-5 4 -10 4 -18 1 -18 -11 0 -56 48 -56 60 0 5 -5 10 -12 10 -6 0 -2 8 10 18
14 13 19 26 15 40 -3 12 -2 30 2 39 5 10 7 23 6 28 -2 6 1 7 5 3 4 -4 14 0 23
10 9 10 26 17 39 16 12 -1 22 3 22 7 0 17 25 4 32 -16 5 -17 6 -16 7 7 1 15 5
29 10 33 6 3 10 13 11 23 8 141 8 138 -26 146 -23 6 -25 11 -21 44 5 36 -4 64
-28 89 -7 7 -15 9 -19 6 -3 -4 -6 -2 -6 4 0 6 -9 9 -22 5 -16 -4 -19 -2 -13 9
7 12 6 12 -7 1 -14 -11 -18 -10 -27 6 -14 27 -62 36 -78 15 -7 -9 -15 -14 -19
-11 -3 3 -21 2 -40 -4 -26 -7 -40 -6 -52 4 -11 9 -14 10 -8 1 9 -17 -6 -17
-23 0 -9 8 -12 8 -7 0 5 -8 -1 -9 -23 0 -17 6 -28 15 -25 19 3 4 0 9 -5 9 -6
1 -15 2 -20 3 -5 0 -13 5 -18 10 -5 5 -2 6 7 1 8 -4 -6 11 -31 34 -46 40 -66
76 -48 87 16 9 10 34 -8 34 -21 -1 -55 -24 -47 -33 3 -3 -3 -3 -15 0 -12 3
-21 1 -21 -6 0 -6 -5 -11 -12 -11 -7 0 -24 -12 -39 -26 -14 -14 -33 -26 -40
-27 -8 -2 -18 -5 -24 -8 -5 -3 -21 -4 -35 -4 -14 1 -44 3 -68 3 -32 2 -41 5
-36 15 6 9 5 9 -8 0 -8 -7 -18 -9 -22 -5 -4 4 -6 1 -4 -7 3 -15 -16 -21 -77
-25 -47 -4 -90 12 -161 59 -29 19 -58 35 -64 35 -6 0 -8 5 -5 10 4 6 3 9 -2 8
-12 -4 -93 34 -93 43 0 5 -7 5 -17 2 -11 -4 -14 -3 -9 5 4 7 1 13 -6 13 -7 1
-26 3 -43 4 -16 2 -31 4 -32 5 -2 1 -6 3 -10 4 -5 1 -13 5 -20 9 -6 4 -14 4
-17 -1 -2 -4 -19 -9 -36 -10 -23 -2 -30 1 -25 10 4 7 -1 4 -9 -6 -9 -11 -16
-16 -16 -12 0 5 -7 3 -15 -4 -17 -14 -11 -48 12 -67 8 -6 15 -22 17 -36 1 -14
8 -32 15 -40 9 -12 9 -16 -1 -20 -9 -4 -10 -6 -1 -6 7 -1 10 -8 6 -18 -5 -12
-3 -14 7 -8 9 5 11 4 6 -4 -4 -6 -12 -9 -17 -6 -5 4 -9 1 -9 -5 0 -6 -5 -8
-12 -4 -8 5 -9 2 -5 -9 4 -10 2 -16 -4 -14 -6 1 -16 -6 -22 -15 -9 -13 -8 -20
2 -30 11 -11 12 -10 6 1 -5 9 -4 12 3 7 6 -3 9 -15 7 -26 -2 -11 0 -22 5 -25
5 -3 7 -12 3 -20 -3 -8 0 -15 7 -15 6 0 8 5 5 10 -3 6 -1 10 5 10 6 0 8 5 4
13 -6 9 -5 9 8 0 8 -7 18 -9 23 -5 4 4 3 -3 -3 -14 -6 -12 -8 -24 -5 -28 4 -3
-6 -20 -22 -36 -16 -16 -25 -33 -22 -37 4 -3 7 -1 7 5 0 6 7 9 15 6 8 -4 25 6
39 23 14 15 26 25 26 21 0 -4 -7 -14 -16 -22 -14 -15 -13 -16 6 -16 12 0 19
-4 16 -8 -3 -5 0 -9 7 -10 72 -7 96 -10 106 -16 22 -14 50 -14 62 0 15 18 35
18 43 -1 3 -8 12 -15 20 -15 8 0 22 -8 32 -17 19 -20 81 -45 104 -43 8 1 31 0
50 -1 50 -2 100 -1 135 3 17 3 44 5 61 6 29 2 89 44 78 55 -3 2 2 7 11 11 11
4 14 2 9 -7 -5 -8 -2 -7 9 2 12 9 17 10 17 2 0 -7 5 -9 10 -6 6 3 10 2 10 -3
0 -9 26 -19 67 -28 7 -1 15 2 19 7 6 10 44 -7 56 -25 5 -7 8 -7 8 2 0 7 3 11
8 9 4 -3 13 1 20 9 7 8 9 14 5 14 -4 1 4 7 18 15 27 15 45 15 68 1 11 -7 12
-6 6 5 -8 12 -6 12 9 0 9 -8 13 -17 8 -20 -5 -3 -8 -15 -6 -26 4 -23 -5 -59
-13 -51 -3 3 -22 -2 -41 -10 -29 -12 -42 -12 -64 -3 -16 7 -25 16 -21 23 4 6
-1 5 -10 -3 -9 -7 -15 -16 -13 -20 3 -4 -11 -6 -30 -6 -32 2 -82 -4 -159 -19
-16 -3 -43 -8 -59 -11 -16 -3 -39 -11 -50 -17 -12 -6 -22 -10 -24 -9 -1 1 -28
-3 -60 -10 -69 -15 -117 -13 -155 6 -15 7 -25 10 -22 5 3 -5 -7 -2 -23 6 -16
7 -46 16 -68 18 -21 2 -56 9 -76 14 -51 13 -308 6 -308 -9 0 -7 -49 -3 -57 5
-4 3 -12 1 -19 -5 -37 -30 -183 2 -170 37 3 8 2 13 -3 10 -5 -3 -12 2 -15 11
-7 16 11 36 25 28 3 -3 6 3 6 13 0 34 3 43 13 37 12 -7 0 25 -25 70 -15 27
-16 28 -11 5 5 -24 4 -24 -9 -6 -8 10 -12 23 -8 29 3 6 1 7 -5 3 -6 -4 -8 -14
-5 -24 4 -9 -8 -1 -26 18 -19 19 -31 29 -27 23 4 -8 1 -13 -9 -13 -8 0 -23 -9
-32 -19 -9 -11 -20 -18 -25 -15 -4 3 -11 -2 -14 -10 -3 -9 -14 -16 -24 -16
-11 0 -22 -5 -25 -10 -3 -6 -16 -8 -29 -4 -24 6 -52 -18 -42 -35 7 -11 -22
-23 -37 -14 -7 3 -2 -5 9 -18 l22 -24 -34 -31 c-19 -17 -37 -28 -40 -25 -4 3
-4 1 -1 -6 4 -6 0 -19 -9 -27 -8 -9 -12 -16 -8 -16 3 0 0 -8 -7 -17 -8 -9 -9
-14 -2 -10 6 4 14 1 16 -5 3 -8 6 -6 6 5 1 9 6 17 12 17 5 0 7 6 3 13 -5 8 -4
9 4 2 10 -10 15 -36 13 -64 -1 -11 -4 -11 -18 0 -16 13 -17 12 -5 -3 8 -9 10
-23 6 -29 -4 -7 -3 -9 3 -6 6 4 14 0 17 -9 4 -9 13 -14 21 -10 9 3 23 -2 33
-12 19 -19 62 -25 62 -10 0 6 7 8 14 5 10 -4 13 -1 9 8 -3 9 4 18 20 24 14 5
27 13 29 18 3 4 3 3 2 -4 -2 -7 2 -15 8 -19 6 -4 8 -3 5 2 -3 6 -2 16 4 24 7
13 9 12 9 -1 0 -14 6 -16 33 -10 18 5 41 6 52 4 11 -3 29 -6 41 -7 11 -1 25
-6 32 -10 7 -4 12 -5 12 -3 0 3 16 1 35 -3 19 -4 37 -4 40 0 3 5 101 7 218 5
160 -3 237 -9 312 -24 91 -18 186 -21 225 -8 15 5 144 27 190 32 14 1 73 14
131 29 106 26 187 30 201 11 5 -6 8 -5 8 3 0 6 9 12 19 12 11 0 26 7 34 15 8
8 17 12 19 9 3 -2 10 2 16 9 9 10 24 12 57 7 27 -4 45 -3 45 3 0 5 9 -1 20
-14 10 -13 19 -19 20 -12 0 6 -5 15 -10 18 -11 7 -4 25 8 25 4 0 13 -9 20 -21
8 -12 9 -18 3 -15 -16 10 -18 -27 -3 -58 8 -16 15 -40 17 -53 1 -14 12 -38 24
-53 22 -31 49 -104 48 -132 0 -15 -3 -15 -15 -5 -8 6 -22 12 -31 12 -9 0 -23
4 -31 10 -13 8 -13 7 -1 -8 7 -9 17 -14 22 -11 5 3 9 -1 9 -8 0 -9 3 -9 10 2
12 19 13 4 1 -38 -7 -24 -6 -35 4 -46 8 -7 11 -16 8 -19 -3 -4 4 -5 15 -2 24
4 38 -10 21 -21 -8 -5 -9 -3 -4 6 5 9 4 11 -4 6 -16 -11 -3 -26 16 -19 11 4
14 3 9 -5 -4 -7 -3 -12 3 -12 5 0 8 -8 6 -17 -1 -10 2 -24 7 -30 7 -9 5 -15
-5 -19 -21 -8 -39 4 -30 19 13 22 11 36 -5 35 -10 -1 -26 2 -37 5 -16 6 -22 1
-31 -26 -15 -48 0 -97 30 -97 21 0 25 -12 17 -49 -1 -2 -7 2 -14 8 -8 6 -17 8
-21 4 -4 -4 -4 1 0 11 6 15 4 17 -7 11 -7 -5 -28 -8 -46 -6 -47 4 -44 -24 5
-47 45 -21 61 -39 62 -70 0 -16 -4 -21 -12 -16 -8 5 -7 0 2 -11 8 -10 10 -16
4 -12 -15 9 -24 -15 -17 -41 6 -26 -23 -71 -45 -67 -9 2 -20 4 -24 4 -14 2 -8
28 9 42 15 13 16 11 9 -16 -4 -19 -3 -25 2 -16 8 11 10 11 15 0 2 -8 5 0 6 16
0 17 2 39 3 50 3 17 -3 20 -32 20 -30 0 -37 -4 -46 -30 -6 -17 -7 -37 -2 -47
5 -10 6 -29 4 -42 -3 -16 3 -30 17 -43 20 -16 20 -16 8 0 -12 15 -12 17 2 11
8 -3 18 -12 21 -20 3 -8 2 -13 -2 -10 -10 6 -42 -29 -42 -47 -1 -17 -25 -47
-39 -47 -6 0 -11 -5 -11 -11 0 -5 -4 -8 -9 -4 -5 3 -13 -4 -16 -16 -5 -15 -10
-18 -15 -9 -4 6 -10 11 -14 10 -11 -1 -36 27 -29 34 4 3 -1 7 -10 7 -10 1 -23
2 -29 3 -18 2 -28 -14 -28 -46 0 -16 -5 -28 -12 -28 -6 0 -8 -3 -5 -7 4 -3 0
-15 -10 -25 -9 -10 -13 -18 -9 -18 4 0 -5 -12 -19 -27 -14 -15 -25 -32 -25
-37 0 -4 -7 -3 -15 4 -8 6 -20 8 -27 4 -6 -4 -22 -8 -34 -9 -20 0 -63 -39 -64
-57 0 -5 -9 -8 -20 -8 -11 0 -20 -7 -20 -15 0 -8 -3 -14 -7 -14 -24 4 -33 -4
-33 -25 0 -14 -10 -32 -22 -40 -12 -9 -19 -16 -14 -16 5 0 3 -6 -3 -13 -6 -8
-7 -18 -3 -22 4 -5 1 -5 -5 -1 -7 4 -13 3 -13 -3 0 -6 -7 -8 -15 -4 -10 3 -15
1 -13 -8 2 -8 -9 -13 -34 -13 -20 -1 -34 3 -31 8 3 5 -6 7 -21 4 -14 -3 -26
-2 -26 2 0 3 -21 7 -46 9 -25 1 -55 6 -67 10 -31 12 -56 6 -82 -19 -12 -11
-29 -18 -37 -15 -9 4 -19 2 -23 -4 -9 -15 -45 -14 -45 2 0 8 -4 7 -10 -3 -8
-13 -10 -13 -10 -1 0 9 -14 -1 -34 -22 -39 -43 -47 -45 -82 -14 -28 24 -74 41
-74 26 0 -5 -9 -9 -21 -9 -18 0 -20 5 -16 40 4 38 -4 52 -18 30 -4 -6 -10 -8
-15 -5 -5 3 -11 1 -15 -5 -4 -6 -12 -7 -18 -3 -12 7 -32 13 -53 15 -6 1 -11 6
-10 12 0 6 -3 11 -9 11 -5 0 -9 -4 -7 -10 2 -5 -6 -1 -17 9 -26 24 -26 23 5
22 14 -1 32 -10 40 -21 8 -10 14 -14 14 -8 0 7 -5 15 -10 18 -6 4 -7 12 -4 18
4 7 4 9 -1 5 -4 -4 -14 0 -22 10 -12 16 -13 16 -7 0 4 -13 1 -16 -15 -13 -11
2 -23 0 -26 -6 -11 -17 -66 -9 -98 13 -22 16 -29 18 -25 7 5 -13 0 -13 -30 3
-21 10 -37 23 -36 28 3 26 5 29 18 24 25 -9 25 10 0 29 -17 13 -24 14 -24 5 0
-10 -3 -9 -9 1 -8 12 -11 9 -16 -12 -12 -47 -28 -33 -28 24 0 19 -29 19 -64 0
-18 -9 -22 -9 -18 1 8 19 -53 54 -68 39 -14 -14 -47 -14 -47 0 0 6 5 19 11 30
8 16 7 26 -6 46 -10 14 -13 23 -7 19 5 -3 12 3 15 14 6 24 -34 56 -55 44 -7
-4 -10 -4 -7 0 4 4 3 23 -1 42 -7 28 -6 33 5 24 9 -8 14 -6 19 5 3 9 2 13 -3
10 -5 -3 -12 -1 -15 4 -4 5 -1 11 6 14 7 2 4 3 -6 1 -23 -4 -56 12 -56 27 0 6
5 7 10 4 6 -3 10 1 10 10 0 16 14 24 45 29 28 4 36 28 17 49 -9 11 -17 22 -17
26 0 3 -15 6 -34 6 -25 0 -35 5 -37 18 -1 9 2 15 7 11 5 -3 9 -1 9 5 0 5 3 17
7 27 4 11 2 15 -7 12 -16 -5 -62 31 -54 43 3 5 6 24 8 43 3 31 2 34 -23 32
-19 -1 -27 3 -27 15 0 10 4 15 9 12 4 -2 5 8 1 23 -5 18 -3 25 4 20 5 -3 9
-17 8 -30 -2 -17 1 -23 10 -19 8 3 11 10 7 17 -10 15 -15 52 -7 43 10 -10 33
25 27 40 -3 7 -9 10 -14 7 -14 -8 8 43 32 75 12 16 22 42 24 59 1 16 5 34 9
40 3 5 -1 13 -10 16 -9 4 -14 13 -10 21 8 22 -2 18 -15 -6 -9 -17 -8 -20 2
-14 8 5 10 4 5 -4 -4 -6 -12 -9 -17 -5 -5 3 -7 9 -5 13 10 16 14 61 5 56 -5
-4 -9 -15 -9 -26 0 -13 -4 -18 -12 -13 -7 5 -8 3 -3 -6 6 -10 4 -12 -8 -7 -10
4 -16 2 -14 -5 1 -7 -9 -13 -22 -14 -27 -2 -41 -19 -36 -46 3 -12 -2 -18 -15
-18 -13 0 -18 7 -17 20 1 11 6 20 11 20 5 0 7 2 4 5 -8 8 -38 -6 -38 -17 0 -5
5 -6 12 -2 7 4 8 3 4 -5 -6 -9 -11 -9 -21 -1 -9 8 -14 6 -19 -6 -9 -23 -8 -26
7 -18 9 6 9 5 0 -7 -7 -9 -8 -20 -3 -29 5 -8 6 -18 3 -23 -3 -5 0 -7 8 -5 8 3
13 11 11 17 -1 7 2 10 7 7 11 -7 -10 -56 -24 -56 -5 0 -3 -5 5 -10 10 -6 11
-10 3 -10 -7 0 -13 -4 -13 -9 0 -5 8 -8 17 -7 12 1 18 -7 19 -22 l1 -23 -22
21 c-13 12 -25 35 -29 51 -3 17 -10 28 -14 25 -5 -3 -9 0 -9 7 0 7 -4 21 -8
32 -5 14 -4 16 3 7 7 -11 10 -9 15 7 3 14 1 19 -6 14 -7 -3 -4 3 6 14 22 26
20 88 -3 88 -9 0 -15 10 -16 23 -2 41 -18 45 -54 13 -19 -16 -41 -27 -49 -24
-14 4 -14 3 -1 -6 11 -7 20 -5 35 7 16 14 17 14 7 1 -6 -9 -9 -18 -7 -21 3 -3
-7 -5 -22 -4 -26 1 -27 -1 -24 -46 1 -27 -2 -48 -7 -48 -5 0 -21 -12 -36 -27
-15 -15 -27 -23 -25 -18 4 21 -1 46 -9 41 -4 -2 -14 4 -21 16 -7 11 -9 18 -4
15 5 -3 9 5 9 18 0 13 -4 21 -8 19 -5 -3 -5 -10 -2 -16 4 -7 2 -8 -5 -4 -6 4
-9 11 -7 15 3 4 1 13 -3 20 -6 10 -12 9 -25 -4 -9 -9 -14 -21 -10 -26 3 -5 0
-8 -7 -7 -7 2 -18 -7 -24 -20 -7 -13 -16 -23 -20 -22 -4 1 -13 -9 -20 -22 -6
-13 -17 -22 -24 -20 -8 1 -10 -2 -5 -10 6 -11 5 -11 -8 0 -12 10 -17 10 -27
-1 -6 -8 -8 -17 -4 -20 3 -4 1 -7 -5 -7 -7 0 -12 -8 -13 -17 0 -15 -2 -15 -9
2 -6 14 -9 15 -10 5 -1 -8 -6 -4 -11 10 -7 20 -15 25 -41 24 -24 -1 -36 5 -45
20 -13 24 -70 32 -70 10 0 -10 4 -11 13 -3 22 18 54 1 54 -31 0 -13 -1 -13
-10 0 -10 16 -67 22 -76 8 -3 -4 -10 -6 -15 -2 -6 4 -3 15 8 27 17 21 17 21 0
7 -17 -13 -21 -11 -38 10 -11 14 -18 18 -16 10 2 -8 2 -12 0 -7 -3 4 -8 5 -12
3 -4 -3 -7 4 -7 16 1 20 -28 48 -39 37 -3 -3 5 -30 18 -60 13 -30 27 -69 30
-86 7 -34 33 -98 67 -166 11 -22 20 -48 20 -59 0 -11 22 -59 48 -107 27 -47
54 -100 61 -118 7 -18 20 -38 28 -45 8 -6 25 -32 38 -57 13 -25 34 -57 47 -71
54 -57 137 -162 143 -180 4 -11 11 -20 17 -20 6 0 5 -7 -3 -17 -12 -14 -12
-16 0 -8 11 6 13 4 8 -8 -3 -9 -1 -19 5 -23 7 -5 8 -2 3 7 -7 12 -6 12 7 1 9
-7 15 -22 13 -34 -4 -17 -2 -18 12 -6 15 11 16 11 10 -6 -6 -15 -5 -17 6 -7
12 9 22 2 51 -33 26 -32 42 -43 53 -39 13 5 15 2 10 -11 -4 -10 -3 -15 3 -11
11 7 50 -30 50 -47 0 -9 -4 -8 -11 2 -9 12 -10 13 -7 0 3 -8 17 -15 32 -16 26
-1 49 -21 41 -34 -2 -3 5 -11 16 -18 12 -8 19 -9 19 -1 0 5 5 7 11 4 6 -4 8
-10 5 -13 -4 -3 4 -17 16 -30 13 -14 17 -22 11 -18 -8 4 -13 1 -13 -9 0 -9 4
-14 9 -10 5 3 12 1 16 -5 3 -5 -2 -10 -12 -11 -11 0 -13 -3 -5 -6 6 -2 9 -10
5 -16 -3 -7 4 -3 16 7 21 19 21 19 15 1 -5 -13 -4 -16 4 -11 7 4 12 2 12 -6 0
-9 3 -9 10 2 6 9 10 11 10 3 0 -7 7 -10 17 -6 11 4 14 3 9 -5 -4 -7 -2 -12 3
-12 6 0 11 -5 11 -11 0 -5 -6 -7 -12 -3 -10 6 -10 5 -1 -8 7 -8 9 -19 5 -24
-4 -5 4 0 17 11 14 11 21 14 16 6 -6 -11 -4 -13 9 -8 11 5 15 3 10 -5 -5 -8
-2 -9 10 -5 14 6 17 3 12 -9 -5 -13 -3 -14 7 -6 10 8 16 6 25 -9 7 -11 18 -17
25 -13 7 4 8 3 4 -2 -5 -5 -14 -9 -20 -9 -7 0 -13 -8 -15 -18 -3 -17 -1 -17
20 -6 30 17 47 19 54 8 3 -5 10 -6 16 -3 7 5 8 2 3 -6 -6 -10 -4 -12 8 -7 12
4 15 1 12 -15 -3 -11 -2 -18 2 -15 3 4 12 -1 20 -11 8 -9 11 -11 7 -3 -5 10
-3 12 7 5 8 -5 17 -9 21 -9 16 0 48 -36 42 -47 -4 -7 -3 -8 4 -4 6 4 9 14 6
24 -5 13 -4 14 4 4 5 -8 12 -13 16 -13 3 1 5 -1 4 -3 -2 -2 4 -12 13 -22 17
-21 18 -32 4 -54 -7 -12 -6 -13 7 -3 8 7 19 9 24 5 4 -4 3 0 -4 9 -6 9 -9 19
-5 22 3 4 12 -1 19 -11 7 -9 17 -18 23 -18 6 -1 16 -2 21 -3 19 -2 71 -59 73
-79 1 -17 4 -19 22 -10 17 10 18 9 8 -3 -10 -12 -8 -15 6 -15 12 0 17 5 13 14
-4 12 -1 12 15 4 11 -6 24 -8 28 -4 5 4 5 -2 1 -12 -6 -16 -4 -17 10 -5 14 11
15 10 12 -6 -1 -11 2 -20 7 -20 6 0 17 -4 25 -10 13 -8 13 -7 1 8 -7 9 -18 14
-24 10 -6 -4 -7 -1 -2 7 6 10 14 7 32 -14 19 -22 21 -31 12 -42 -6 -8 -8 -14
-3 -15 5 0 17 -2 27 -4 9 -2 15 0 13 4 -3 4 4 12 14 19 12 7 21 8 25 2 4 -6
10 -8 15 -5 5 3 12 0 16 -6 4 -7 3 -9 -4 -5 -6 3 -13 3 -16 -2 -2 -4 6 -8 19
-8 14 0 21 4 18 11 -4 5 5 1 18 -11 15 -13 36 -20 57 -19 18 1 32 -3 32 -9 0
-6 5 -4 11 4 9 12 10 11 6 -8 -3 -12 -1 -20 3 -17 5 3 12 1 15 -5 5 -8 12 -7
23 2 13 11 15 10 9 -4 -3 -10 -3 -17 1 -17 4 1 10 0 15 -1 8 -3 23 -7 33 -9 4
0 0 -9 -7 -19 -11 -15 -11 -15 1 -4 8 7 15 18 15 24 0 7 12 13 26 13 14 1 34
5 44 9 16 6 16 4 4 -11 -13 -17 -13 -17 7 0 11 9 24 14 29 10 4 -5 5 -3 1 4
-3 6 -2 14 4 18 5 3 10 1 10 -5 0 -6 5 -8 10 -5 6 4 8 10 5 15 -3 5 4 7 15 5
28 -5 50 4 50 20 0 8 4 17 10 20 6 4 7 -1 3 -10 -5 -15 -3 -15 16 -4 11 8 21
17 21 22 0 4 5 5 10 2 6 -3 10 -1 10 5 0 6 4 9 9 5 5 -3 16 1 23 9 8 7 23 16
34 20 72 23 316 155 396 214 85 64 222 197 269 263 19 27 19 27 -1 22 -11 -3
-17 -9 -14 -14 3 -5 0 -9 -5 -9 -14 0 -14 17 0 25 6 4 8 14 5 22 -4 11 -2 13
9 10 8 -4 17 -1 21 5 4 6 3 8 -4 4 -17 -10 -25 13 -10 31 8 10 8 14 1 10 -17
-10 -27 11 -13 28 6 8 9 19 5 25 -3 5 -2 10 4 10 6 0 9 6 7 13 -1 6 -1 9 1 6
2 -4 14 -5 26 -3 22 5 22 5 -1 -5 -12 -6 -22 -16 -21 -23 0 -10 2 -10 6 0 2 6
9 12 14 12 6 0 7 -6 4 -12 -4 -7 1 -4 10 7 14 18 14 21 -2 32 -14 11 -15 15
-3 26 10 10 11 9 5 -2 -5 -9 -4 -12 3 -7 6 4 9 13 5 21 -3 8 -1 15 5 15 10 0
40 40 44 61 3 13 16 29 79 99 22 25 50 63 61 85 12 22 31 54 44 71 13 17 24
34 24 38 0 4 5 12 10 19 28 33 59 88 65 116 4 17 15 36 26 42 22 11 21 13 38
-73 13 -60 46 -116 112 -192 l41 -47 -37 22 c-35 21 -37 21 -32 3 4 -10 18
-73 33 -139 24 -103 28 -143 28 -280 0 -135 -3 -174 -23 -250 -25 -99 -38
-155 -81 -355 -56 -263 -78 -377 -100 -525 -26 -179 -34 -208 -71 -259 -25
-35 -31 -64 -9 -51 33 20 26 -72 -34 -450 -45 -282 -67 -405 -92 -505 -32
-133 -72 -327 -77 -375 -2 -22 -11 -65 -20 -95 -9 -30 -18 -73 -21 -95 -4 -38
-15 -99 -36 -208 -6 -27 -10 -61 -10 -76 0 -15 -5 -32 -11 -38 -5 -5 -13 -37
-16 -69 -3 -32 -10 -65 -16 -72 -5 -7 -7 -15 -3 -19 3 -3 6 0 6 7 0 7 3 11 6
8 3 -4 -2 -21 -11 -38 -9 -18 -15 -41 -12 -51 3 -11 2 -17 -3 -14 -9 6 -21
-52 -23 -112 -1 -23 -5 -37 -8 -31 -4 6 -10 -11 -14 -38 -4 -27 -11 -53 -15
-59 -4 -5 -13 -41 -19 -80 -6 -38 -18 -101 -26 -140 -13 -67 -29 -174 -38
-260 -9 -80 -20 -140 -27 -150 -4 -5 -10 -26 -13 -45 -7 -49 -11 -64 -20 -71
-4 -3 -11 -41 -16 -85 -13 -109 -20 -155 -28 -168 -8 -11 -13 -32 -15 -53 -1
-7 -4 -13 -8 -13 -8 0 -28 -81 -35 -142 -3 -25 -9 -58 -15 -72 l-9 -26 3289 0
3290 0 0 7500 0 7500 -7500 0 -7500 0 0 -7500z m9946 3665 c1 -8 -1 -17 -5
-19 -4 -3 -7 6 -7 19 0 25 8 25 12 0z m-270 -310 c1 -8 -3 -18 -8 -22 -6 -3
-8 -1 -4 5 3 6 2 13 -4 17 -6 4 -8 11 -4 16 7 12 17 4 20 -16z m641 -2335 c-1
-22 -6 -40 -10 -40 -9 0 -9 6 -1 48 9 44 14 40 11 -8z m-3402 -1610 c3 -5 -1
-10 -10 -10 -9 0 -13 5 -10 10 3 6 8 10 10 10 2 0 7 -4 10 -10z m158 -257 c-7
-2 -19 -2 -25 0 -7 3 -2 5 12 5 14 0 19 -2 13 -5z m-343 -259 c0 -8 5 -12 11
-8 6 3 3 -8 -5 -25 -13 -23 -13 -31 -4 -31 9 0 9 -3 -1 -9 -10 -7 -19 -4 -29
7 -7 9 -10 11 -6 3 5 -10 3 -12 -5 -7 -9 6 -9 11 -1 21 6 8 11 22 10 32 -3 28
-1 33 15 33 8 0 15 -7 15 -16z m2273 -4 c-3 -12 -8 -19 -11 -16 -5 6 5 36 12
36 2 0 2 -9 -1 -20z m-2243 -40 c0 -5 -5 -10 -11 -10 -5 0 -7 5 -4 10 3 6 8
10 11 10 2 0 4 -4 4 -10z m-538 -78 c9 -9 9 -12 -1 -12 -7 0 -10 -3 -7 -8 2
-4 -3 -16 -11 -27 -13 -17 -15 -17 -9 -2 3 11 2 16 -4 12 -6 -3 -10 4 -11 17
l0 23 -9 -22 c-11 -27 -22 -31 -13 -5 14 40 39 50 65 24z m3143 7 c-8 -12 22
-18 34 -6 6 6 17 12 26 13 11 2 8 -10 -11 -48 -17 -33 -29 -47 -33 -39 -4 7
-17 13 -29 14 -20 1 -20 2 -5 19 9 10 12 18 7 18 -5 0 -10 8 -10 18 0 10 6 19
13 19 7 0 10 -4 8 -8z m-3204 -82 l-23 -22 17 28 c10 15 20 25 23 22 3 -3 -5
-16 -17 -28z m488 -49 c-5 -10 -12 -18 -14 -18 -2 0 -9 8 -14 18 -8 15 -6 18
14 18 20 0 22 -3 14 -18z m-55 -46 c3 -5 -1 -9 -9 -9 -8 0 -12 4 -9 9 3 4 7 8
9 8 2 0 6 -4 9 -8z m58 -34 c-8 -8 -9 -4 -5 13 4 13 8 18 11 10 2 -7 -1 -18
-6 -23z m765 -843 c0 -8 -4 -12 -9 -9 -5 3 -6 10 -3 15 9 13 12 11 12 -6z
m1355 -133 c-7 -2 -9 -9 -5 -15 3 -7 2 -8 -2 -4 -16 14 -14 36 3 29 10 -4 12
-7 4 -10z m-1608 -408 c3 -8 2 -12 -4 -9 -6 3 -10 10 -10 16 0 14 7 11 14 -7z
m-2290 -186 c-3 -5 -9 -6 -14 -3 -5 3 -12 -4 -15 -16 -4 -12 -10 -18 -14 -13
-3 5 -12 10 -20 12 -12 3 -12 1 0 -14 9 -12 9 -15 2 -10 -8 4 -13 2 -13 -6 0
-9 -3 -9 -10 2 -9 13 -10 13 -10 0 0 -13 -1 -13 -11 0 -9 12 -12 13 -16 1 -4
-9 -8 -10 -12 -2 -5 7 -18 7 -41 1 -19 -5 -64 -17 -100 -26 -36 -10 -78 -19
-95 -21 -16 -1 -37 -4 -45 -6 -8 -2 -32 -7 -52 -11 -21 -5 -36 -12 -33 -16 3
-5 -3 -7 -12 -5 -10 1 -29 -3 -43 -10 -20 -10 -31 -11 -55 0 -30 12 -29 12 45
28 41 9 124 26 185 38 60 11 121 26 135 31 29 11 216 55 236 55 7 0 11 -4 8
-9z m5531 2 c3 -6 -1 -7 -9 -4 -18 7 -21 14 -7 14 6 0 13 -4 16 -10z m-2801
-35 c-4 -8 -11 -12 -16 -9 -6 4 -5 10 3 15 19 12 19 11 13 -6z m2935 -12 c106
-32 124 -46 53 -39 -48 5 -137 39 -148 58 -8 12 3 10 95 -19z m-2805 -18 c13
0 20 -8 21 -24 l2 -23 -17 22 c-12 15 -19 19 -24 11 -9 -14 -26 -5 -26 15 0
10 5 12 13 7 6 -4 21 -8 31 -8z m3083 -51 c-3 -3 -12 -4 -19 -1 -8 3 -5 6 6 6
11 1 17 -2 13 -5z m149 -34 c195 -55 278 -80 354 -110 41 -16 133 -49 203 -74
71 -26 176 -66 235 -90 59 -24 116 -47 127 -51 11 -5 54 -16 95 -25 315 -72
512 -130 651 -193 79 -36 171 -73 204 -82 33 -10 168 -60 300 -112 132 -53
299 -118 370 -145 72 -27 154 -61 182 -75 29 -14 74 -27 100 -29 182 -13 314
-95 382 -238 48 -99 101 -268 95 -299 -3 -21 -1 -27 7 -21 8 4 9 3 5 -4 -4 -7
-1 -12 6 -13 10 0 10 -2 -1 -6 -11 -4 -11 -7 0 -13 7 -5 14 -22 15 -38 2 -28
-7 -33 -36 -22 -3 1 -8 2 -12 1 -4 0 -5 6 -1 15 5 13 7 13 15 2 5 -8 7 -3 5
17 -3 17 -9 29 -15 28 -6 -2 -9 8 -6 23 3 14 1 23 -5 20 -5 -3 -15 2 -22 11
-12 14 -12 16 0 9 9 -6 12 -5 9 5 -3 8 -14 13 -26 13 -12 -1 -20 4 -19 10 1 6
-4 10 -12 8 -12 -3 -12 0 -1 13 11 13 10 15 -2 10 -8 -3 -20 0 -26 8 -9 11 -8
14 3 14 8 0 12 -4 9 -9 -10 -16 3 -8 22 14 13 16 14 19 2 10 -19 -15 -33 0
-23 26 3 9 3 13 -1 9 -4 -4 -13 -2 -21 4 -10 9 -13 8 -14 -2 0 -8 -4 -5 -9 6
-8 20 -9 20 -9 -1 -1 -26 9 -37 24 -24 8 7 12 5 12 -5 0 -8 -4 -12 -9 -9 -4 3
-8 0 -8 -7 0 -7 -7 -4 -15 7 -8 10 -15 28 -15 38 0 23 -10 16 -15 -11 -2 -10
-4 -20 -4 -22 -1 -2 -7 2 -15 8 -10 8 -16 9 -19 1 -3 -6 -4 -5 -3 2 2 7 9 13
16 13 7 0 15 6 18 13 2 7 -2 10 -11 6 -8 -3 -18 0 -22 5 -3 6 -11 9 -16 5 -5
-3 -7 -9 -5 -12 2 -4 -10 -8 -27 -8 -18 -1 -26 1 -19 3 6 3 12 9 12 14 0 6 -6
7 -12 3 -10 -6 -10 -4 0 8 7 9 23 15 34 13 11 -3 18 -1 14 2 -11 11 -40 12
-52 2 -8 -6 -14 -4 -18 6 -3 9 -11 13 -17 9 -8 -4 -9 -3 -5 5 6 9 12 9 24 0
13 -10 13 -9 -1 7 -15 16 -19 17 -27 4 -14 -22 -13 -53 2 -44 7 5 8 3 3 -5 -5
-9 -13 -7 -30 9 -23 21 -24 50 -2 50 6 0 7 3 4 7 -4 3 -15 -1 -25 -10 -15 -14
-19 -15 -19 -2 0 8 4 12 8 10 4 -3 9 2 12 10 4 9 1 12 -9 8 -7 -3 -15 0 -15 6
-2 14 -6 30 -9 34 -7 8 -6 37 1 48 8 12 11 12 20 -1 8 -12 9 -10 4 9 -5 16 -4
21 4 17 16 -10 14 -1 -3 13 -11 9 -16 9 -22 0 -5 -8 -3 -9 6 -4 9 5 11 4 6 -4
-11 -17 -25 -4 -19 19 3 11 10 17 17 13 7 -4 6 -1 -1 9 -7 8 -9 19 -5 24 4 4
-1 2 -11 -5 -15 -12 -17 -12 -11 3 5 12 2 15 -10 10 -9 -4 -16 -3 -15 2 4 21
-2 35 -11 29 -5 -3 -10 -1 -10 4 0 6 -3 10 -7 9 -5 -1 -18 3 -30 10 -45 25
-70 31 -70 17 0 -8 5 -11 10 -8 6 3 7 1 3 -5 -11 -18 -24 -14 -31 9 -7 20 -7
20 -22 2 -8 -10 -12 -13 -9 -7 7 14 -32 26 -40 13 -7 -12 -24 -2 -24 14 0 7 4
6 11 -3 7 -10 9 -11 7 -2 -2 8 -8 14 -13 15 -6 0 -21 6 -34 13 -14 7 -28 11
-33 8 -5 -3 -7 0 -6 6 2 7 -5 14 -14 15 -17 3 -22 -6 -19 -30 1 -5 -8 1 -19
15 -11 14 -20 28 -20 31 0 3 -7 6 -15 6 -9 0 -16 -10 -16 -26 -1 -22 -3 -21
-8 7 -3 18 -9 33 -14 32 -4 0 -21 7 -38 16 -17 8 -28 11 -25 6 3 -6 -2 -13
-11 -16 -10 -4 -15 -4 -11 -1 3 4 -1 14 -10 24 -16 16 -18 16 -30 -3 -9 -16
-12 -17 -10 -4 2 9 -1 17 -7 17 -5 0 -12 8 -16 18 -7 16 -8 15 -8 -4 -1 -28
-21 -31 -21 -4 0 11 -5 23 -12 27 -7 5 -9 2 -4 -7 4 -8 -1 -5 -11 7 -12 14
-29 21 -55 20 -20 -1 -34 3 -31 7 11 18 -18 36 -42 27 -20 -8 -28 -4 -45 18
-12 15 -19 20 -15 12 4 -9 0 -7 -9 4 -8 10 -21 16 -28 13 -7 -2 -22 3 -32 12
-18 15 -19 15 -12 -4 6 -17 4 -17 -18 4 -15 14 -26 21 -26 17 0 -5 -6 -4 -12
1 -7 5 -20 9 -28 8 -8 0 -28 9 -43 22 -16 13 -33 21 -38 17 -5 -3 -9 1 -9 8 0
9 -3 9 -10 -2 -6 -9 -10 -11 -10 -3 0 8 -7 10 -17 6 -16 -6 -17 -5 -3 13 8 10
10 16 6 12 -5 -4 -15 -3 -23 3 -7 6 -13 8 -13 3 0 -5 -4 -4 -8 3 -4 6 -16 13
-27 15 -11 1 -23 8 -27 13 -5 6 -8 5 -8 -4 0 -10 -6 -10 -26 4 -15 9 -23 11
-19 5 4 -7 -5 -3 -22 9 -19 15 -38 20 -56 17 -15 -2 -29 0 -33 5 -3 6 -12 5
-22 -3 -9 -7 -13 -8 -10 -3 7 12 -12 30 -32 30 -8 0 -14 6 -12 14 3 12 0 12
-12 2 -11 -9 -16 -9 -22 0 -5 8 -3 9 6 4 7 -5 11 -4 8 1 -4 5 -27 9 -52 8 -25
0 -43 3 -41 7 9 13 -52 28 -64 16 -8 -8 -14 -9 -19 -1 -11 15 -69 37 -81 29
-6 -3 -11 -2 -11 2 0 8 -20 13 -67 17 -11 0 -19 4 -16 9 2 4 -4 7 -14 7 -10 0
-31 9 -48 20 -16 11 -47 20 -67 20 -20 0 -40 5 -43 11 -4 6 -13 8 -21 5 -8 -3
-14 -1 -14 4 0 5 -6 7 -14 4 -8 -3 -17 -1 -20 5 -4 6 -14 7 -23 4 -10 -4 -14
-2 -10 4 4 6 0 14 -9 17 -8 3 -12 2 -9 -4 9 -14 -8 -12 -24 3 -11 10 -12 9 -6
-2 6 -10 4 -12 -6 -5 -8 5 -22 7 -33 5 -13 -2 -16 1 -11 11 6 10 5 10 -5 1
-10 -10 -19 -8 -39 6 -45 31 -55 35 -46 21 6 -10 4 -11 -6 -4 -8 4 -18 9 -24
11 -5 1 -21 5 -35 8 -14 3 -36 8 -50 10 -14 2 -43 9 -65 14 -57 14 -93 20
-155 26 -112 12 -132 12 -146 -3 -17 -17 -49 -8 -38 10 5 8 1 8 -12 -2 -10 -8
-16 -11 -13 -7 4 5 -4 19 -16 33 -22 24 -23 26 -7 54 11 19 19 25 24 17 5 -9
8 -8 8 3 0 13 1 13 11 0 9 -12 10 -10 6 8 -4 17 -2 21 6 14 7 -5 21 -8 32 -6
11 1 23 -2 27 -9 6 -9 8 -8 8 2 0 11 3 11 17 0 14 -12 16 -12 8 0 -6 11 -5 12
6 5 8 -5 21 -9 29 -9 8 0 20 -4 27 -8 6 -4 14 -3 17 2 7 11 -9 23 -38 27 -36
5 -60 12 -98 28 -21 9 -40 16 -43 16 -3 0 -21 6 -40 14 -19 8 -35 12 -35 9 0
-3 -6 0 -14 6 -8 7 -27 16 -43 21 -15 4 -21 9 -12 9 9 1 65 -13 125 -29z
m-6736 0 c0 -5 8 -7 18 -3 16 6 15 5 -1 -15 -23 -25 -55 -19 -35 6 11 13 11
14 -2 7 -8 -5 -29 -9 -47 -8 -35 0 -49 -10 -38 -28 5 -7 13 -4 26 7 17 16 18
15 14 -6 -2 -13 -6 -23 -7 -24 -31 -15 -69 -22 -74 -15 -3 6 -16 -1 -28 -14
-12 -13 -27 -22 -34 -19 -7 2 -12 -5 -12 -16 0 -30 -73 -49 -210 -57 -63 -4
-133 -11 -155 -16 -22 -5 -58 -11 -80 -14 -22 -2 -69 -11 -105 -19 -36 -9 -73
-18 -82 -20 -9 -3 -25 -9 -35 -14 -10 -5 -28 -8 -41 -6 -13 2 -21 0 -17 -5 3
-5 0 -13 -6 -17 -8 -4 -9 -3 -5 5 8 12 3 11 -61 -3 -12 -2 -30 -9 -40 -14 -10
-6 -20 -10 -23 -10 -17 -1 -67 -16 -77 -24 -6 -5 -24 -11 -40 -14 -15 -3 -41
-12 -57 -20 -16 -8 -37 -14 -47 -14 -10 0 -28 -4 -41 -9 -30 -12 -222 -56
-227 -52 -2 1 -8 -3 -12 -11 -6 -8 -9 -9 -9 -1 0 8 -9 9 -32 3 -60 -16 -112
-23 -180 -24 -38 -1 -68 -5 -68 -9 0 -5 -4 -5 -10 -2 -5 3 -10 0 -10 -7 0 -9
-3 -9 -10 2 -8 13 -11 13 -22 1 -11 -11 -11 -13 1 -6 10 6 12 4 6 -4 -5 -8
-11 -9 -17 -3 -13 13 -50 3 -41 -12 4 -6 -1 -5 -11 3 -14 12 -19 12 -29 1 -9
-9 -9 -11 0 -6 6 3 14 3 17 -2 2 -4 -6 -8 -19 -8 -13 0 -21 4 -19 8 3 4 0 8
-5 8 -6 0 -11 -4 -11 -8 0 -4 -12 -7 -26 -7 -15 1 -49 -2 -78 -7 -28 -5 -61
-9 -74 -10 -13 0 -36 -13 -51 -29 -21 -21 -31 -25 -40 -16 -8 8 -11 7 -11 -3
0 -13 -2 -13 -10 0 -5 8 -10 10 -10 5 0 -6 -8 -11 -19 -12 -47 -4 -101 -24
-94 -36 5 -9 3 -9 -9 1 -19 15 -68 12 -68 -5 0 -7 -7 -10 -15 -7 -16 7 -48
-13 -41 -25 5 -7 -6 -9 -69 -11 -19 -1 -35 -5 -35 -9 0 -3 -14 -7 -31 -7 -32
-2 -53 -20 -42 -38 3 -5 1 -6 -6 -2 -6 4 -9 11 -6 15 4 7 -13 8 -48 2 -5 0 -6
-4 -4 -8 3 -5 -11 -9 -31 -10 -19 -1 -39 -8 -43 -15 -5 -7 -9 -8 -9 -3 0 6
-15 12 -32 13 -60 5 -50 19 29 41 43 12 170 51 283 86 363 114 609 175 835
205 247 34 378 56 525 90 74 17 160 35 190 39 31 5 85 22 120 39 72 34 272 97
510 162 85 23 169 46 185 51 25 7 77 19 190 42 39 9 85 7 85 -3z m-2243 -597
c0 -10 -4 -10 -16 -1 -9 7 -18 13 -20 15 -2 1 5 1 16 0 11 0 20 -7 20 -14z
m-862 -176 c-11 -7 -32 -25 -47 -41 -15 -15 -28 -25 -28 -21 0 3 -15 -3 -32
-15 -24 -16 -21 -11 12 19 25 22 59 47 75 55 35 18 48 20 20 3z m-189 -174
c-10 -10 -19 5 -10 18 6 11 8 11 12 0 2 -7 1 -15 -2 -18z m-28 -33 c-7 -10
-14 -17 -17 -15 -4 4 18 35 25 35 2 0 -1 -9 -8 -20z m12822 -61 c0 -6 -4 -7
-10 -4 -5 3 -10 11 -10 16 0 6 5 7 10 4 6 -3 10 -11 10 -16z m-12869 -26 c-12
-20 -14 -14 -5 12 4 9 9 14 11 11 3 -2 0 -13 -6 -23z m10576 -294 c14 -1 20
-6 16 -15 -3 -8 -1 -14 5 -14 5 0 38 -27 73 -60 35 -33 66 -60 70 -60 4 0 16
-16 28 -36 22 -36 27 -69 13 -78 -5 -3 -68 -6 -141 -7 -96 -1 -135 -5 -145
-15 -8 -7 -17 -49 -21 -96 -6 -72 -34 -158 -50 -158 -3 0 -51 46 -108 103 -56
56 -112 109 -123 117 -13 9 -24 31 -28 56 -6 36 -4 43 17 56 18 12 34 14 68 8
24 -5 47 -6 51 -4 4 2 9 1 11 -4 7 -11 107 -6 119 6 5 5 12 43 14 83 2 40 9
86 15 102 11 27 15 28 53 23 23 -4 51 -7 63 -7z m2530 -51 c-3 -8 -6 -5 -6 6
-1 11 2 17 5 13 3 -3 4 -12 1 -19z m18 -27 c-9 -8 -36 -10 -30 -2 2 4 11 8 20
8 8 0 13 -3 10 -6z m99 -12 c-3 -5 -10 -7 -15 -3 -5 3 -7 10 -3 15 3 5 10 7
15 3 5 -3 7 -10 3 -15z m262 -376 c-3 -3 -1 -15 4 -27 7 -18 4 -22 -14 -23
-11 0 -15 1 -8 4 6 3 12 11 12 19 0 8 -6 14 -12 15 -10 0 -10 2 0 6 10 4 10 8
0 21 -12 15 -11 16 5 3 9 -8 15 -16 13 -18z m20 -104 c2 -18 1 -30 -2 -27 -3
3 -7 20 -9 38 -3 18 -2 30 2 27 3 -4 7 -21 9 -38z m84 -433 c-5 -15 -5 -27 2
-34 7 -7 6 -10 -6 -8 -9 1 -16 6 -15 12 3 18 19 54 24 54 2 0 0 -11 -5 -24z
m-20 -131 c0 -7 -30 -13 -34 -7 -3 4 4 9 15 9 10 1 19 0 19 -2z m-46 -93 c3
-5 -1 -9 -9 -9 -8 0 -12 4 -9 9 3 4 7 8 9 8 2 0 6 -4 9 -8z m50 -11 c3 -5 -1
-11 -9 -14 -9 -4 -12 -1 -8 9 6 16 10 17 17 5z m-107 -44 c-5 8 0 11 13 10 20
-1 29 -17 9 -17 -5 0 -8 -4 -4 -9 3 -5 0 -13 -6 -17 -7 -4 -9 -3 -6 3 4 6 -2
13 -13 16 -11 3 -20 11 -20 17 0 9 4 9 17 -1 10 -8 14 -9 10 -2z m99 -61 c1
-7 -5 -13 -12 -13 -8 0 -14 4 -14 9 0 4 5 8 11 8 5 0 7 6 3 13 -4 6 -3 8 1 4
5 -4 10 -13 11 -21z m-75 -3 c13 -16 12 -17 -3 -4 -10 7 -18 15 -18 17 0 8 8
3 21 -13z m26 -38 c5 -4 2 -5 -6 0 -9 5 -12 3 -9 -6 3 -8 11 -13 17 -11 7 1
10 -2 7 -7 -4 -5 -3 -11 1 -14 5 -2 2 -2 -4 -1 -7 2 -13 -1 -13 -6 0 -6 7 -10
16 -10 8 0 12 -5 9 -10 -4 -6 -11 -8 -16 -5 -5 3 -6 -1 -3 -9 3 -9 10 -16 15
-16 5 0 9 -4 9 -8 0 -13 -49 -9 -54 4 -3 9 1 11 12 7 14 -6 15 -4 5 9 -7 8
-10 18 -6 21 9 9 -18 58 -28 51 -5 -3 -6 2 -3 10 6 16 37 17 51 1z m107 4 c-6
-10 -44 -18 -44 -10 0 4 3 10 6 14 8 8 44 5 38 -4z m-39 -70 c11 -17 2 -18
-19 -3 -17 12 -17 14 -4 14 9 0 20 -5 23 -11z m-85 -79 c0 -5 -8 -10 -17 -10
-15 0 -16 2 -3 10 19 12 20 12 20 0z m0 -34 c0 -3 -4 -8 -10 -11 -5 -3 -10 -1
-10 4 0 6 5 11 10 11 6 0 10 -2 10 -4z m-11459 -469 c-7 -7 -7 -16 2 -26 7
-10 3 -9 -10 3 -24 20 -23 33 2 33 11 0 12 -4 6 -10z m117 -133 c-1 -5 -9 -9
-16 -10 -10 -2 -11 1 -1 12 12 14 24 13 17 -2z m527 -94 c4 -6 1 -9 -7 -8 -7
2 -12 -2 -11 -8 1 -6 -5 -11 -13 -11 -11 0 -11 4 3 19 19 21 20 21 28 8z
m5049 -208 c3 -5 -1 -9 -9 -9 -8 0 -12 4 -9 9 3 4 7 8 9 8 2 0 6 -4 9 -8z
m-110 -341 c3 -5 -2 -15 -12 -22 -15 -12 -16 -12 -5 2 7 9 10 19 6 22 -3 4 -4
7 0 7 3 0 8 -4 11 -9z"/>
<path d="M11550 4076 c0 -2 8 -10 18 -17 15 -13 16 -12 3 4 -13 16 -21 21 -21
13z"/>
<path d="M13845 3143 c2 -10 4 -20 5 -23 1 -3 2 -7 2 -10 0 -4 10 -6 23 -6 13
0 21 4 19 8 -3 5 -9 6 -14 3 -4 -3 -6 5 -2 17 5 21 4 22 -13 8 -10 -8 -16 -10
-12 -3 4 6 3 14 -2 17 -5 4 -8 -2 -6 -11z"/>
<path d="M14047 3039 c7 -7 15 -10 18 -7 3 3 -2 9 -12 12 -14 6 -15 5 -6 -5z"/>
<path d="M14038 3013 c6 -2 9 -10 6 -15 -4 -7 -2 -8 5 -4 13 9 5 26 -12 25 -9
0 -8 -2 1 -6z"/>
<path d="M13987 2995 c3 -8 9 -12 14 -9 12 7 11 11 -5 17 -10 4 -13 1 -9 -8z"/>
<path d="M14196 2875 c3 -8 10 -13 14 -10 10 6 33 -22 26 -33 -3 -5 0 -9 7 -9
7 0 13 8 13 18 0 10 -5 15 -10 12 -5 -4 -7 1 -3 10 3 9 1 19 -5 23 -7 4 -8 3
-4 -4 9 -15 1 -15 -24 -2 -16 8 -18 8 -14 -5z"/>
<path d="M14275 2735 c0 -13 3 -21 8 -18 4 2 7 10 7 18 0 8 -3 16 -7 18 -5 3
-8 -5 -8 -18z"/>
<path d="M4055 4320 c-4 -6 -11 -7 -17 -4 -7 4 -8 2 -4 -5 4 -6 12 -8 18 -5 7
4 8 2 4 -4 -4 -6 -14 -8 -23 -5 -12 5 -14 3 -8 -8 8 -12 6 -12 -9 0 -15 12
-17 12 -14 0 2 -8 -2 -13 -8 -12 -6 1 -11 -4 -11 -12 0 -10 5 -11 17 -5 11 6
21 5 28 -2 9 -9 12 -8 12 6 0 9 4 15 9 11 5 -3 12 -1 16 5 4 6 11 8 16 5 5 -4
9 -2 9 3 0 6 -7 13 -16 16 -8 3 -12 10 -9 16 3 5 4 10 1 10 -3 0 -8 -5 -11
-10z"/>
<path d="M3907 4277 c-4 -12 -1 -14 16 -11 12 3 28 6 35 6 15 2 6 11 -13 14
-8 1 -15 -3 -15 -9 0 -8 -3 -7 -9 1 -7 11 -9 11 -14 -1z"/>
<path d="M11365 2908 c-3 -18 -2 -51 2 -73 9 -40 9 -40 64 -45 30 -3 68 -3 82
0 l28 5 -26 25 c-14 14 -33 33 -43 43 -9 11 -36 32 -59 48 l-42 29 -6 -32z"/>
<path d="M11095 2711 c3 -6 21 -18 41 -27 19 -9 44 -28 57 -41 51 -57 58 -63
70 -62 9 0 9 2 0 6 -10 3 -9 8 3 20 10 11 14 30 12 62 l-3 46 -93 3 c-61 2
-91 -1 -87 -7z"/>
<path d="M6734 9470 c-38 -10 -73 -16 -77 -13 -4 3 -13 0 -20 -5 -7 -6 -34
-13 -62 -17 -71 -11 -99 -17 -150 -34 -16 -5 -50 -15 -75 -22 -58 -17 -105
-43 -146 -81 -26 -25 -31 -35 -23 -50 8 -15 4 -22 -26 -39 -49 -29 -46 -50 10
-80 20 -10 49 -14 85 -12 97 6 114 9 118 21 2 7 8 10 13 6 5 -3 10 0 10 5 1 6
2 17 3 24 2 14 28 10 38 -6 5 -7 8 -8 8 -2 0 9 21 15 68 18 6 0 12 3 12 7 0 3
28 6 63 6 60 -1 62 -2 63 -28 1 -15 -3 -25 -7 -22 -5 3 -9 1 -9 -5 0 -5 6 -12
13 -15 6 -3 0 -3 -16 -1 -15 2 -25 0 -22 -4 10 -17 -29 -36 -76 -37 -47 -2
-79 -20 -79 -44 0 -6 -4 -9 -9 -6 -5 3 -14 -1 -21 -9 -7 -8 -16 -12 -21 -9 -5
3 -9 0 -9 -6 0 -6 -4 -8 -10 -5 -5 3 -10 -2 -10 -11 0 -9 -18 -34 -40 -55 -22
-21 -40 -45 -40 -53 0 -8 -8 -19 -17 -25 -16 -8 -14 -11 12 -21 30 -11 197 -8
260 5 17 4 37 6 45 6 139 -3 283 -12 297 -20 10 -5 32 -11 48 -12 17 -2 37
-12 47 -22 10 -11 19 -14 22 -8 4 6 15 7 30 2 23 -10 96 7 96 22 0 12 53 -18
75 -43 11 -12 29 -26 40 -32 16 -7 15 -5 -3 10 -22 17 -23 20 -7 35 9 10 21
15 26 11 5 -3 35 -7 67 -9 31 -2 75 -11 96 -20 46 -19 56 -11 56 48 0 20 5 38
10 38 6 1 22 2 38 3 15 1 33 5 41 10 11 7 12 6 6 -5 -8 -12 -6 -12 8 0 9 7 14
17 11 22 -3 5 -1 9 5 9 5 0 17 7 25 16 12 11 16 12 16 2 0 -7 9 2 21 21 11 18
18 39 16 45 -9 24 14 56 65 86 104 62 128 135 68 204 -17 19 -48 40 -68 46
-20 7 -41 18 -47 25 -25 30 -84 50 -210 70 -11 1 -47 8 -80 15 -33 6 -73 14
-90 16 -16 3 -46 7 -65 10 -19 3 -82 6 -140 6 -70 0 -117 5 -140 15 -52 21
-157 23 -236 3z m-14 -329 c3 -1 -2 -5 -10 -10 -15 -10 -30 -6 -30 9 0 4 8 7
18 5 9 -2 19 -4 22 -4z m488 -258 c2 -8 -5 -13 -15 -13 -11 0 -24 -5 -31 -12
-9 -9 -12 -9 -12 3 0 33 48 51 58 22z"/>
<path d="M8817 9423 c-2 -1 -28 -8 -58 -13 -86 -16 -92 -18 -122 -29 -15 -6
-31 -10 -35 -10 -26 4 -63 -3 -74 -15 -17 -17 -73 -46 -89 -46 -6 0 -22 11
-34 24 -20 21 -30 24 -70 20 -84 -8 -90 -16 -99 -126 -5 -73 9 -139 36 -159
18 -14 21 -26 20 -102 0 -71 3 -91 19 -111 18 -22 24 -24 75 -19 l55 6 -6 -37
c-5 -23 -3 -41 5 -51 10 -12 17 -11 52 11 35 22 53 26 141 29 55 1 116 -2 135
-7 24 -7 37 -6 42 1 8 14 73 9 115 -9 19 -7 56 -10 100 -7 152 11 271 -14 357
-74 34 -24 142 -27 164 -4 10 10 11 15 3 15 -7 0 -8 4 -2 13 15 19 34 69 25
63 -5 -3 -8 19 -8 48 1 56 9 62 42 36 12 -10 15 -11 10 -2 -6 9 -1 11 18 8 18
-3 24 -1 20 6 -5 8 -1 9 12 4 10 -4 15 -4 11 0 -4 4 5 15 20 25 30 20 36 36
36 94 -2 124 -21 169 -95 217 -68 44 -148 73 -268 96 -52 10 -106 25 -120 32
-22 12 -65 19 -124 21 -10 0 -31 6 -45 13 -14 8 -45 17 -68 21 -24 4 -46 11
-49 16 -5 9 -139 11 -147 2z"/>
<path d="M6404 9160 c0 -11 2 -17 4 -15 10 9 42 -17 36 -28 -4 -7 -4 -9 1 -5
4 4 15 2 23 -5 11 -8 14 -8 9 0 -4 6 -4 13 0 16 5 2 3 3 -3 1 -7 -1 -25 10
-41 26 -25 24 -29 25 -29 10z"/>
<path d="M4795 9047 c-33 -10 -42 -19 -52 -50 -13 -39 -9 -67 11 -67 7 0 17
-5 24 -12 29 -29 100 -25 128 6 12 14 25 22 30 18 4 -4 4 1 1 11 -5 13 -3 16
6 10 46 -28 55 8 14 53 -26 29 -41 37 -77 40 -25 2 -63 -2 -85 -9z"/>
<path d="M9576 8865 c-9 -26 -7 -32 5 -12 6 10 9 21 6 23 -2 3 -7 -2 -11 -11z"/>
<path d="M5090 8851 c0 -22 65 -99 75 -89 4 4 -4 27 -19 51 -28 49 -56 68 -56
38z"/>
<path d="M10346 8807 c3 -10 9 -15 12 -12 3 3 0 11 -7 18 -10 9 -11 8 -5 -6z"/>
<path d="M8526 8692 c-4 -4 -13 -7 -18 -7 -6 0 -13 -7 -15 -15 -4 -13 -3 -13
6 0 8 11 11 12 11 2 0 -7 4 -11 9 -7 5 3 12 1 15 -4 4 -5 14 -8 24 -6 9 1 24
-4 33 -11 13 -12 15 -10 15 10 0 18 -5 23 -18 21 -10 -2 -18 1 -18 7 0 7 -7 3
-15 -8 -11 -14 -14 -15 -9 -3 6 18 -9 33 -20 21z"/>
<path d="M7280 8679 c0 -5 -4 -7 -10 -4 -6 4 -7 -1 -3 -11 4 -11 3 -15 -5 -10
-6 3 -16 -3 -22 -14 -10 -18 -14 -19 -28 -8 -15 11 -15 11 -5 -2 6 -8 11 -18
10 -22 -1 -3 2 -10 6 -15 5 -4 7 -1 5 7 -1 8 3 14 10 13 6 -2 11 0 11 5 -3 19
2 33 11 27 5 -3 7 -12 4 -19 -3 -8 -1 -17 5 -21 6 -3 9 0 5 8 -5 15 31 18 53
4 10 -6 11 -2 3 20 -9 26 -9 27 5 9 13 -17 15 -18 15 -3 0 9 -5 17 -11 17 -5
0 -8 4 -4 9 3 5 1 13 -5 16 -6 4 -9 1 -8 -6 2 -6 -3 -14 -10 -16 -8 -3 -10 2
-6 14 5 17 5 17 -6 0 -13 -20 -4 -41 13 -31 7 4 8 3 4 -1 -19 -21 -35 -13 -32
16 2 16 2 29 0 29 -3 0 -5 -5 -5 -11z"/>
<path d="M7385 8661 c-3 -5 -2 -12 3 -15 5 -3 9 1 9 9 0 17 -3 19 -12 6z"/>
<path d="M8645 8661 c-3 -5 -2 -12 3 -15 5 -3 9 1 9 9 0 17 -3 19 -12 6z"/>
<path d="M8673 8645 c0 -8 4 -12 9 -9 5 3 6 10 3 15 -9 13 -12 11 -12 -6z"/>
<path d="M8623 8635 c0 -8 4 -12 9 -9 5 3 6 10 3 15 -9 13 -12 11 -12 -6z"/>
<path d="M7186 8617 c3 -10 9 -15 12 -12 3 3 0 11 -7 18 -10 9 -11 8 -5 -6z"/>
<path d="M7110 8606 c6 -6 5 -15 -3 -25 -11 -14 -10 -14 6 -2 9 7 17 10 17 6
0 -5 8 -1 18 8 10 10 22 15 25 12 4 -3 4 -2 1 2 -3 4 -21 8 -40 8 -23 1 -31
-2 -24 -9z m40 -2 c0 -8 -19 -13 -24 -6 -3 5 1 9 9 9 8 0 15 -2 15 -3z"/>
<path d="M5211 8551 c-37 -32 -42 -41 -36 -62 7 -21 10 -39 14 -86 1 -15 20
-11 53 11 15 10 34 19 43 20 8 1 16 6 16 12 1 5 5 16 10 25 4 9 5 20 1 24 -4
3 -7 10 -7 13 0 17 -28 71 -39 75 -6 3 -31 -12 -55 -32z"/>
<path d="M7156 8582 c-3 -5 1 -9 9 -9 8 0 12 4 9 9 -3 4 -7 8 -9 8 -2 0 -6 -4
-9 -8z"/>
<path d="M9905 8268 c-6 -17 -9 -46 -7 -84 2 -26 6 -31 26 -31 22 0 24 3 21
41 -5 60 -10 79 -23 84 -7 2 -14 -2 -17 -10z"/>
<path d="M9950 8245 c7 -8 10 -22 6 -30 -3 -9 -2 -13 4 -10 6 3 10 2 10 -4 0
-5 -5 -13 -10 -16 -6 -4 -8 -11 -5 -16 4 -5 -1 -19 -9 -31 -15 -20 -16 -21
-16 -4 0 11 -3 17 -6 13 -12 -12 5 -37 21 -31 8 3 12 10 9 16 -3 5 2 8 12 6
13 -2 19 3 19 17 0 11 4 26 9 34 6 9 5 12 -2 7 -6 -3 -15 8 -22 29 -6 19 -16
35 -22 35 -6 0 -6 -6 2 -15z m27 -70 c0 -8 -4 -12 -9 -9 -5 3 -6 10 -3 15 9
13 12 11 12 -6z"/>
<path d="M9104 7067 c1 -8 7 -21 14 -29 6 -8 8 -19 4 -23 -4 -5 -1 -5 6 -1 9
6 10 11 3 20 -6 7 -9 15 -6 18 3 3 -1 11 -9 17 -11 10 -14 9 -12 -2z"/>
<path d="M7429 7068 c-10 -32 2 -61 15 -39 4 5 2 12 -4 16 -6 4 -8 11 -5 16 4
5 4 9 1 9 -3 0 -6 -1 -7 -2z"/>
<path d="M7096 7008 c3 -5 10 -6 15 -3 13 9 11 12 -6 12 -8 0 -12 -4 -9 -9z"/>
<path d="M7316 6989 c3 -5 1 -9 -4 -9 -5 0 -9 -8 -9 -17 0 -10 -1 -27 -2 -38
l-2 -20 -8 20 c-5 11 -4 25 1 32 5 7 5 14 -2 18 -5 3 -10 -1 -10 -10 0 -9 -4
-14 -8 -11 -5 3 -9 -1 -9 -9 0 -8 4 -12 9 -9 4 3 8 -4 8 -15 0 -13 6 -19 19
-18 11 0 17 5 15 9 -7 10 57 38 69 31 5 -3 3 5 -3 18 l-13 24 26 -23 c14 -14
27 -19 31 -13 4 5 2 12 -4 16 -5 3 -10 3 -10 -1 0 -4 -6 0 -13 9 -12 18 -92
33 -81 16z"/>
<path d="M9126 6923 c-6 -14 -5 -15 5 -6 7 7 10 15 7 18 -3 3 -9 -2 -12 -12z"/>
<path d="M9076 6848 c-9 -13 -15 -18 -12 -12 3 6 -1 11 -9 11 -25 0 -22 -44 3
-64 15 -12 15 -12 -3 -6 -17 6 -18 5 -5 -9 14 -15 16 -14 26 5 6 11 19 22 29
23 25 4 28 10 21 38 -4 18 -11 24 -23 19 -11 -4 -14 -3 -9 5 13 21 -1 13 -18
-10z"/>
<path d="M9331 6686 c-10 -12 -8 -16 10 -21 13 -5 25 -2 30 6 17 28 -19 41
-40 15z"/>
<path d="M9326 6623 c-6 -14 -5 -15 5 -6 7 7 10 15 7 18 -3 3 -9 -2 -12 -12z"/>
<path d="M6966 6608 c3 -4 11 -5 19 -1 21 7 19 12 -4 10 -11 0 -18 -5 -15 -9z"/>
<path d="M6830 6600 c-9 -6 -10 -10 -3 -10 6 0 15 5 18 10 8 12 4 12 -15 0z"/>
<path d="M9044 6498 c-4 -7 -4 -10 1 -6 4 4 15 2 24 -5 14 -11 14 -10 2 6 -16
20 -18 21 -27 5z"/>
<path d="M9361 6432 c-1 -8 -6 -10 -13 -6 -10 5 -10 4 -1 -6 15 -16 28 -8 20
12 -4 11 -6 11 -6 0z"/>
<path d="M5750 6401 c0 -5 5 -13 10 -16 6 -3 10 -2 10 4 0 5 -4 13 -10 16 -5
3 -10 2 -10 -4z"/>
<path d="M9443 6383 c0 -7 4 -13 8 -13 4 0 9 6 12 13 3 8 0 14 -7 14 -7 0 -13
-6 -13 -14z"/>
<path d="M7930 6321 c-5 -11 -19 -19 -29 -18 -11 0 -18 4 -15 8 2 4 -8 6 -23
5 -22 -3 -29 -10 -34 -32 -4 -16 -7 -22 -8 -14 -1 13 -3 13 -10 0 -6 -8 -7
-18 -4 -24 3 -5 1 -6 -5 -2 -6 4 -8 14 -5 24 3 9 3 14 -2 10 -4 -4 -15 -2 -23
5 -11 8 -14 9 -9 0 6 -9 -2 -10 -29 -6 -27 4 -35 3 -30 -5 4 -8 2 -10 -8 -6
-9 3 -17 -2 -21 -15 -3 -12 -11 -18 -17 -15 -5 3 -2 -8 6 -25 18 -33 35 -38
65 -19 25 15 47 5 69 -32 10 -16 22 -27 26 -23 4 4 4 -1 0 -11 -6 -15 -4 -17
6 -11 10 6 12 3 8 -13 -4 -14 -2 -20 4 -16 7 4 7 -2 3 -17 -5 -13 -9 -33 -9
-44 -1 -11 -6 -19 -12 -18 -5 1 -11 -12 -12 -28 -1 -16 2 -30 8 -30 20 -3 25
-4 38 -12 52 -33 132 -15 139 31 4 27 33 74 33 54 0 -8 5 -10 12 -6 6 4 8 3 4
-4 -14 -23 15 -22 38 1 14 14 28 22 33 19 4 -4 2 0 -4 8 -10 11 -9 18 5 34 9
12 13 18 8 14 -5 -4 -16 -2 -25 5 -14 11 -15 10 -1 -7 14 -18 13 -19 -3 -13
-10 4 -16 3 -12 -2 3 -5 0 -13 -6 -17 -7 -4 -9 -3 -5 4 3 6 2 13 -3 16 -5 4
-14 -6 -19 -21 -6 -16 -11 -22 -11 -15 -1 7 -5 10 -11 7 -6 -3 -7 1 -4 9 3 9
10 13 15 10 5 -3 9 0 9 5 0 6 -6 11 -12 11 -9 0 -8 3 2 9 8 6 17 8 21 5 4 -2
10 0 13 4 7 11 -35 9 -54 -3 -13 -7 -13 -6 -2 7 7 9 25 14 42 13 17 -1 30 2
30 8 0 6 3 7 6 4 4 -3 15 -2 25 3 14 8 19 5 25 -12 6 -22 8 -21 38 13 34 38
75 72 62 52 -4 -8 -2 -11 6 -8 8 3 14 16 14 30 0 13 -4 21 -10 18 -5 -4 -7 1
-3 12 6 14 3 16 -13 12 -17 -4 -19 -3 -10 9 9 10 17 11 31 4 15 -9 17 -7 12 6
-3 9 -13 14 -25 11 -10 -3 -24 0 -31 6 -14 14 -71 22 -63 9 3 -5 -1 -9 -9 -9
-8 0 -11 5 -8 11 3 6 0 5 -8 -1 -15 -15 -33 -18 -25 -5 3 5 -1 9 -9 9 -8 0
-12 -4 -9 -9 3 -4 1 -8 -5 -8 -5 0 -12 6 -14 13 -4 10 -6 10 -6 0 -1 -7 -6
-13 -12 -13 -5 0 -7 6 -3 13 6 9 4 9 -8 -1 -13 -10 -17 -10 -21 0 -4 10 -6 10
-6 -1 -1 -9 -8 -6 -21 9 -11 13 -20 18 -20 12 0 -6 5 -14 10 -17 6 -3 10 -12
10 -18 0 -8 -3 -8 -9 1 -4 8 -12 14 -17 14 -5 0 -8 5 -6 11 2 6 -5 4 -14 -4
-16 -12 -17 -12 -11 4 4 10 7 21 7 23 0 3 5 2 12 -2 7 -4 8 -3 4 4 -10 16 -14
15 -26 -7z"/>
<path d="M6575 6190 c3 -5 8 -10 11 -10 2 0 4 5 4 10 0 6 -5 10 -11 10 -5 0
-7 -4 -4 -10z"/>
<path d="M8860 6101 c0 -6 4 -13 10 -16 6 -3 7 1 4 9 -7 18 -14 21 -14 7z"/>
<path d="M8013 5993 c-3 -10 -8 -21 -10 -25 -2 -4 2 -10 8 -14 7 -4 10 -3 7 2
-3 5 -2 18 3 29 7 18 8 17 8 -7 1 -30 16 -45 27 -27 4 8 3 9 -4 5 -8 -5 -12 1
-12 18 0 31 -18 44 -27 19z"/>
<path d="M7200 5369 c0 -5 5 -7 10 -4 6 3 10 8 10 11 0 2 -4 4 -10 4 -5 0 -10
-5 -10 -11z"/>
<path d="M5761 5319 c-1 -3 5 -49 13 -102 14 -90 33 -138 64 -162 7 -6 14 -20
15 -32 0 -12 5 -19 9 -17 4 3 1 21 -7 41 -8 20 -13 38 -11 40 4 4 -9 41 -39
108 -8 17 -21 53 -29 80 -8 28 -15 47 -15 44z"/>
<path d="M6466 5178 c3 -5 10 -6 15 -3 13 9 11 12 -6 12 -8 0 -12 -4 -9 -9z"/>
<path d="M6613 5039 c-2 -23 3 -25 10 -4 4 8 3 16 -1 19 -4 3 -9 -4 -9 -15z"/>
<path d="M6871 4817 c-13 -21 -12 -21 5 -5 10 10 16 20 13 22 -3 3 -11 -5 -18
-17z"/>
<path d="M7010 4766 c0 -2 8 -10 18 -17 15 -13 16 -12 3 4 -13 16 -21 21 -21
13z"/>
<path d="M7807 4383 c-4 -3 -7 -11 -7 -17 0 -6 5 -5 12 2 6 6 9 14 7 17 -3 3
-9 2 -12 -2z"/>
<path d="M7633 4321 c-16 -26 -16 -26 4 -9 14 13 22 15 30 7 8 -8 14 -6 21 8
17 31 -34 25 -55 -6z"/>
<path d="M7606 4328 c3 -5 10 -6 15 -3 13 9 11 12 -6 12 -8 0 -12 -4 -9 -9z"/>
<path d="M7162 3976 c-12 -18 -22 -38 -22 -44 0 -34 -33 6 -35 43 -1 21 -38
15 -126 -21 -188 -75 -219 -91 -219 -116 0 -25 -25 -52 -59 -63 -16 -5 -21
-15 -21 -39 0 -19 -10 -46 -25 -66 -25 -34 -26 -51 -3 -34 27 20 139 48 233
58 12 2 73 16 98 22 18 6 25 58 8 68 -11 7 -9 32 4 43 4 4 5 3 1 -4 -11 -19
12 -25 24 -6 11 17 11 17 6 0 -3 -9 4 -32 15 -50 l21 -32 -6 32 c-6 36 7 51
30 32 13 -10 17 -10 24 0 5 9 10 10 14 2 4 -6 3 -11 -2 -11 -5 0 -12 -21 -16
-47 -9 -67 -49 -119 -118 -155 -32 -17 -58 -34 -58 -39 0 -17 57 -9 75 11 13
15 31 20 67 20 100 0 150 -60 97 -117 -21 -21 -21 -23 -4 -29 21 -8 74 18 106
52 27 28 40 97 27 136 -6 16 -7 49 -4 73 9 54 22 60 126 57 l75 -2 0 46 c0 35
5 50 20 60 19 13 18 14 -7 14 -29 0 -46 15 -26 23 25 8 -3 21 -44 20 -38 -2
-40 -1 -24 16 25 27 61 31 93 9 28 -18 107 -23 96 -5 -10 16 -71 37 -89 30
-11 -4 -23 2 -35 18 -18 24 -18 24 -12 2 4 -19 1 -23 -16 -23 -11 0 -21 5 -21
11 0 5 -8 9 -17 8 -10 -1 -30 1 -44 5 -14 4 -34 9 -45 11 -10 2 -19 4 -19 5 0
1 -27 3 -61 5 -58 3 -61 2 -82 -29z m161 -31 c20 -8 37 -19 37 -24 0 -14 -48
-6 -68 12 -27 25 -72 23 -72 -4 0 -11 -4 -17 -10 -14 -17 11 -11 31 13 43 25
12 46 10 100 -13z m-219 -16 c-3 -5 -10 -7 -15 -3 -5 3 -7 10 -3 15 3 5 10 7
15 3 5 -3 7 -10 3 -15z m74 -52 c6 3 12 0 12 -6 0 -15 -22 -14 -45 2 -11 9
-15 19 -10 27 6 10 11 8 19 -7 6 -11 17 -18 24 -16z m-225 -67 c3 -11 1 -20
-5 -20 -6 0 -8 -11 -4 -25 8 -33 -19 -47 -79 -39 -46 7 -72 31 -62 58 8 20 69
46 108 46 28 0 38 -5 42 -20z"/>
<path d="M7720 3834 c-14 -8 -33 -14 -42 -14 -9 0 -20 -6 -24 -12 -4 -7 -4
-10 1 -6 4 4 21 -6 38 -22 23 -22 35 -26 48 -19 10 5 28 9 41 9 l23 0 -25 -20
c-14 -11 -33 -20 -42 -20 -10 0 -18 -6 -18 -12 0 -7 -7 -2 -16 10 -38 54 -120
68 -166 27 -30 -26 -35 -44 -16 -63 18 -18 -1 -14 -30 7 -77 53 -157 25 -151
-54 6 -90 1 -133 -24 -182 -15 -28 -31 -54 -37 -58 -5 -3 -10 -11 -10 -17 0
-6 3 -9 6 -5 7 7 64 -12 64 -22 0 -17 -53 -31 -89 -25 -33 7 -35 6 -22 -9 7
-10 28 -17 47 -17 25 0 34 -5 40 -22 4 -13 11 -26 17 -30 6 -3 12 -13 13 -21
4 -31 16 -57 23 -53 4 3 13 1 21 -4 10 -6 21 -3 34 8 11 9 17 12 13 6 -3 -6
27 7 69 28 71 38 154 109 154 133 0 15 28 52 74 98 29 30 44 37 60 32 34 -11
91 -11 93 0 2 6 -5 10 -15 11 -9 0 -28 5 -42 11 -14 6 -28 9 -32 7 -7 -5 -22
35 -16 42 3 2 20 -4 39 -13 19 -9 51 -16 71 -16 39 2 115 38 162 77 28 23 28
24 10 41 -11 9 -48 35 -84 57 -36 23 -94 60 -130 83 -95 62 -101 64 -130 49z
m-96 -90 c9 -3 16 -11 16 -16 0 -7 -4 -7 -12 0 -7 5 -24 8 -38 6 -19 -3 -22
-2 -10 6 18 11 23 12 44 4z m16 -54 c0 -5 -5 -10 -11 -10 -5 0 -7 5 -4 10 3 6
8 10 11 10 2 0 4 -4 4 -10z m255 -120 c-3 -5 -13 -10 -21 -10 -8 0 -12 5 -9
10 3 6 13 10 21 10 8 0 12 -4 9 -10z m-198 -112 c-3 -8 -6 -5 -6 6 -1 11 2 17
5 13 3 -3 4 -12 1 -19z"/>
<path d="M7532 3798 c-14 -14 -16 -42 -2 -33 14 9 32 45 22 45 -4 0 -13 -5
-20 -12z"/>
<path d="M6531 3729 c-41 -29 -43 -33 -38 -70 3 -21 1 -39 -4 -39 -5 0 -9 9
-9 19 0 50 -32 33 -150 -79 -36 -34 -57 -59 -47 -56 11 3 15 2 12 -4 -3 -6 0
-10 7 -10 9 0 9 -3 -2 -10 -12 -8 -12 -10 5 -10 17 0 17 -2 5 -10 -14 -9 -7
-14 13 -11 5 1 6 -3 2 -9 -3 -5 1 -10 10 -10 8 0 29 -13 47 -30 17 -16 36 -30
43 -30 6 0 33 -26 59 -58 27 -32 61 -64 78 -71 16 -7 48 -38 71 -70 23 -31 45
-58 48 -61 13 -10 28 -84 23 -107 -7 -28 -1 -29 42 -2 18 11 31 26 28 33 -6
16 33 66 52 66 8 0 14 -4 14 -10 0 -5 7 -10 15 -10 20 0 20 -44 -1 -64 -8 -9
-13 -20 -10 -24 3 -5 -1 -17 -8 -28 -11 -15 -17 -16 -29 -6 -33 28 -137 -28
-137 -73 0 -22 19 -29 36 -12 11 11 49 8 62 -5 7 -7 12 -21 12 -31 0 -16 -5
-18 -27 -13 -19 4 -23 3 -14 -2 9 -7 12 -24 8 -58 -6 -63 -30 -154 -39 -154
-4 0 -5 -6 -2 -14 3 -8 -13 -50 -36 -94 -36 -69 -40 -83 -30 -102 11 -21 12
-21 25 -3 13 17 14 17 15 1 0 -23 45 -21 80 3 24 16 31 19 48 19 4 0 0 5 -8
10 -13 8 -12 10 3 10 10 0 17 8 17 19 0 25 27 76 32 60 3 -8 17 -5 47 11 24
12 51 20 61 17 9 -2 28 2 41 9 35 19 77 17 106 -6 15 -11 28 -18 31 -16 10 11
1 147 -13 179 -20 49 -88 101 -120 93 -21 -5 -25 -3 -25 14 0 11 -6 29 -12 41
-11 17 -10 22 6 35 24 17 88 18 119 2 45 -23 57 -28 69 -28 13 0 88 -79 88
-92 0 -4 5 -8 10 -8 15 0 12 28 -4 37 -22 12 -46 64 -46 101 0 25 5 35 23 41
13 5 27 15 33 22 13 18 47 129 41 135 -11 11 -37 -11 -37 -31 0 -16 -5 -23
-17 -22 -16 1 -18 12 -18 78 -1 69 2 78 19 83 11 3 24 0 28 -7 13 -20 9 -27
-12 -27 -35 0 -22 -28 14 -32 28 -3 36 0 40 16 3 11 0 31 -7 46 -10 20 -20 25
-47 25 -28 0 -39 -6 -55 -31 -11 -17 -30 -36 -42 -41 -22 -10 -23 -9 -23 24
l0 35 -35 -31 c-32 -28 -39 -30 -87 -24 -29 3 -58 10 -64 14 -6 5 -19 10 -30
12 -10 1 -24 6 -31 10 -7 4 -35 8 -63 10 -68 2 -63 13 9 22 45 5 74 2 130 -15
85 -25 125 -24 129 5 3 25 -40 72 -76 82 -15 4 -57 8 -94 8 -71 0 -79 8 -22
24 66 18 206 -17 221 -55 3 -9 12 -5 29 15 13 16 24 32 24 35 0 3 -39 24 -87
47 -47 22 -103 53 -122 69 -61 47 -146 46 -183 -3 l-18 -22 0 25 0 25 -20 -25
c-19 -25 -20 -25 -20 -3 0 12 -4 25 -10 28 -5 3 -10 1 -10 -6 0 -7 -3 -10 -6
-6 -3 3 4 20 16 37 l22 31 -36 -6 c-40 -8 -51 8 -13 20 16 4 18 8 8 12 -8 3
-22 -4 -32 -16 -25 -31 -31 -26 -15 14 17 40 16 40 -50 20 -27 -8 -50 -15 -52
-15 -2 0 0 10 3 21 7 20 5 22 -28 16 -28 -4 -35 -3 -30 9 3 7 8 12 12 9 12 -7
69 32 87 60 13 20 15 33 8 53 -13 37 -33 38 -83 1z m389 -295 c0 -15 -52 -54
-73 -54 -9 0 -19 5 -23 12 -4 6 -3 8 3 5 12 -8 39 20 30 30 -4 3 -13 0 -22 -7
-17 -14 -31 -8 -20 10 4 6 21 20 38 30 29 18 33 18 49 3 10 -9 18 -22 18 -29z
m-124 -109 c4 -8 12 -15 20 -15 15 0 18 -18 8 -44 -9 -24 -24 -19 -24 7 0 12
-7 33 -16 45 -9 13 -11 22 -4 22 6 0 13 -7 16 -15z m59 -155 c-10 -11 -21 -17
-24 -14 -3 3 3 12 13 20 28 20 32 17 11 -6z m53 -7 c-5 -24 -27 -28 -25 -4 1
12 7 21 15 21 7 0 12 -8 10 -17z m95 -93 c8 0 8 -3 1 -10 -12 -12 -44 -3 -44
12 0 6 7 7 16 4 9 -3 21 -6 27 -6z m50 -322 c13 -36 -6 -80 -50 -113 -53 -41
-78 -35 -89 19 -7 39 2 64 18 48 12 -12 41 11 51 41 7 20 62 24 70 5z"/>
<path d="M6652 2798 c-8 -8 -8 -17 -1 -30 13 -23 4 -52 -14 -45 -6 2 -18 -2
-25 -9 -7 -8 -8 -14 -2 -14 5 0 1 -9 -9 -19 -32 -32 -48 -62 -76 -141 -15 -41
-31 -79 -36 -85 -5 -5 -9 -19 -9 -32 0 -16 -6 -23 -20 -23 -10 0 -24 -9 -30
-20 -8 -15 -8 -20 2 -20 10 0 9 -3 -1 -9 -8 -5 -14 -23 -13 -40 0 -24 -4 -31
-18 -31 -13 0 -18 -5 -13 -16 4 -10 -2 -17 -16 -21 -24 -6 -23 -30 2 -25 10 2
17 -6 19 -20 3 -21 29 -34 27 -14 0 5 5 13 13 17 11 7 11 11 0 17 -14 9 -7 62
8 62 20 0 40 -32 34 -56 -3 -13 -2 -25 2 -25 5 -1 37 -3 72 -4 57 -2 79 -8
135 -36 15 -8 17 -4 17 28 0 20 7 45 17 55 22 24 13 31 -40 30 -48 -1 -59 7
-92 65 -15 26 -17 37 -8 55 7 13 19 46 28 74 8 28 30 73 48 99 60 91 69 113
70 178 0 28 -27 67 -48 67 -6 0 -16 -5 -23 -12z m-209 -493 c-3 -9 -8 -14 -10
-11 -3 3 -2 9 2 15 9 16 15 13 8 -4z"/>
<path d="M7325 2728 c-7 -19 -9 -34 -4 -36 5 -2 9 -10 9 -18 0 -7 9 -28 19
-45 17 -28 18 -35 6 -53 -9 -13 -11 -27 -6 -35 5 -8 7 -20 4 -26 -2 -7 3 -20
13 -29 10 -10 14 -26 11 -41 -2 -14 -1 -25 3 -25 9 0 5 -109 -5 -132 -4 -10
-13 -18 -20 -18 -7 0 -15 -7 -19 -15 -3 -8 -16 -20 -28 -25 -13 -6 -30 -15
-39 -22 -14 -9 -23 -7 -48 14 -16 14 -35 28 -41 30 -6 2 -14 22 -17 46 -3 23
-9 39 -14 37 -4 -3 -10 4 -14 14 -6 20 -6 20 -43 -1 -70 -39 -165 -42 -240 -5
-18 9 -26 7 -42 -11 -26 -28 -26 -30 14 -38 63 -11 95 -75 57 -113 -12 -12
-28 -21 -37 -21 -9 0 -14 -7 -12 -16 2 -8 6 -15 11 -15 4 1 18 1 32 1 16 0 42
15 69 40 24 22 57 43 75 46 17 4 34 11 37 15 3 5 27 9 54 9 37 0 55 -6 78 -25
17 -14 33 -25 36 -25 12 0 46 -35 46 -48 0 -7 7 -15 16 -19 8 -3 20 -15 25
-27 5 -11 13 -28 18 -36 5 -8 17 -33 26 -55 26 -65 30 -70 66 -73 42 -4 56
-16 64 -53 8 -36 31 -38 39 -3 9 36 -1 63 -39 104 -41 44 -70 136 -55 175 7
17 7 24 0 20 -6 -3 -10 -1 -10 4 0 6 5 11 10 11 6 0 21 9 33 21 19 18 22 29
19 88 -3 79 -60 268 -80 264 -15 -4 -16 9 -1 24 12 12 1 40 -16 44 -5 1 -9 11
-7 22 2 11 -1 17 -7 13 -16 -10 -31 29 -25 63 8 41 -3 40 -21 -1z m128 -448
c24 -28 21 -47 -8 -52 -25 -5 -37 16 -13 24 7 3 9 12 5 22 -11 28 -37 1 -37
-37 0 -17 -2 -28 -4 -26 -7 7 -14 78 -8 83 12 13 49 5 65 -14z"/>
<path d="M7242 2575 c0 -16 2 -22 5 -12 2 9 2 23 0 30 -3 6 -5 -1 -5 -18z"/>
<path d="M7281 2573 c1 -15 -1 -50 -3 -77 -4 -43 -1 -53 19 -72 30 -28 30 -69
-1 -89 -53 -35 -91 26 -69 109 14 51 6 96 -16 96 -13 0 -25 -62 -23 -117 3
-115 104 -176 143 -85 34 81 16 209 -35 251 -13 11 -15 9 -15 -16z"/>
<path d="M6983 2466 c-16 -14 -41 -28 -56 -31 -26 -7 -58 -34 -41 -36 5 0 18
-3 29 -6 11 -3 43 -7 70 -10 41 -4 55 -1 78 17 31 25 34 42 10 70 -23 27 -55
25 -90 -4z"/>
<path d="M7240 2398 c0 -23 18 -41 34 -35 9 4 16 16 16 27 0 15 -7 20 -25 20
-14 0 -25 -6 -25 -12z"/>
<path d="M6334 2178 c-3 -5 -12 -7 -20 -4 -39 15 -60 -102 -25 -142 25 -30 38
-28 57 11 9 17 29 47 43 66 18 24 22 36 13 39 -6 2 -12 10 -12 17 0 15 -48 26
-56 13z"/>
<path d="M7452 2158 c-1 -47 9 -56 23 -17 13 37 10 49 -9 49 -8 0 -13 -13 -14
-32z"/>
<path d="M7015 2133 c-27 -18 -35 -29 -29 -41 4 -10 9 -29 12 -44 2 -16 11
-28 19 -28 12 0 13 3 4 14 -8 9 -9 16 -2 20 6 4 8 19 5 35 -8 37 25 48 61 19
32 -25 32 -43 -4 -79 -50 -49 -126 -33 -146 32 -6 19 -12 21 -52 15 -25 -3
-49 -8 -53 -11 -5 -3 12 -27 37 -54 67 -71 84 -129 80 -271 -3 -108 -2 -115
20 -135 12 -11 24 -32 26 -47 4 -36 11 -42 55 -44 50 -3 80 -10 108 -29 38
-25 59 -19 73 21 15 41 9 51 -34 56 -22 2 -39 16 -67 53 -34 44 -38 54 -32 89
3 21 18 68 33 105 42 99 54 161 45 228 -10 85 -32 111 -101 119 -12 1 -38 -9
-58 -23z"/>
<path d="M7180 2154 c0 -2 9 -23 20 -45 12 -22 18 -44 15 -49 -3 -5 0 -12 6
-15 6 -4 8 -20 5 -39 -3 -17 -8 -55 -11 -85 -3 -29 -14 -74 -24 -100 -11 -25
-21 -53 -24 -61 -4 -15 18 -70 29 -70 3 0 3 4 -1 9 -3 5 -1 12 5 16 5 3 10 -1
10 -9 0 -9 6 -16 14 -16 7 0 19 -7 26 -15 15 -18 27 -16 57 9 16 13 20 23 13
30 -16 16 -12 39 5 32 8 -3 15 -1 15 4 0 6 -4 10 -9 10 -5 0 -9 23 -8 50 0 47
10 66 20 38 2 -7 2 -2 0 12 -3 14 -7 41 -9 60 -7 59 -38 133 -74 179 -19 24
-34 47 -33 50 1 4 -9 8 -23 9 -13 1 -24 -1 -24 -4z"/>
<path d="M6952 2137 c-6 -7 -7 -18 -3 -25 5 -9 11 -5 19 13 12 26 2 34 -16 12z"/>
<path d="M6490 2099 c0 -5 -4 -8 -9 -5 -10 7 -61 -42 -61 -58 0 -7 3 -8 8 0 4
5 23 22 43 37 l36 27 31 -29 c26 -25 36 -29 70 -24 30 4 54 -1 98 -21 55 -25
66 -35 100 -83 22 -30 9 -47 -20 -28 -30 20 -63 26 -93 19 -40 -10 -25 -20 32
-23 50 -2 74 -9 115 -36 18 -11 42 -16 36 -7 -2 4 -11 25 -21 47 -18 39 -68
95 -85 95 -4 0 -10 7 -14 15 -5 14 -43 34 -73 39 -7 1 -16 6 -20 10 -30 30
-173 51 -173 25z"/>
<path d="M6878 2103 c7 -3 16 -2 19 1 4 3 -2 6 -13 5 -11 0 -14 -3 -6 -6z"/>
<path d="M6950 2081 c0 -6 5 -13 10 -16 6 -3 10 1 10 9 0 9 -4 16 -10 16 -5 0
-10 -4 -10 -9z"/>
<path d="M6975 2040 c3 -5 8 -10 11 -10 2 0 4 5 4 10 0 6 -5 10 -11 10 -5 0
-7 -4 -4 -10z"/>
<path d="M6635 2000 c-7 -12 4 -16 60 -24 l40 -5 -30 17 c-38 20 -62 25 -70
12z"/>
<path d="M6523 1946 c-15 -13 -25 -27 -21 -31 9 -10 132 -10 147 -1 9 6 5 13
-16 25 -52 32 -79 34 -110 7z"/>
<path d="M6635 1869 c-89 -18 -167 -38 -173 -45 -4 -4 0 -5 9 -1 9 3 35 -3 57
-14 40 -20 41 -21 41 -76 0 -47 -6 -63 -35 -104 -26 -38 -34 -58 -33 -91 0
-24 3 -38 5 -31 3 7 12 9 19 7 25 -10 36 6 21 28 -11 15 -12 27 -4 49 13 38
51 40 74 4 14 -22 15 -32 5 -64 -14 -50 -15 -48 14 -55 14 -4 25 -11 25 -16 0
-6 7 -10 15 -10 9 0 24 -13 33 -30 9 -16 20 -30 24 -30 3 0 20 -12 37 -26 36
-30 56 -26 74 13 6 15 20 37 29 47 10 11 18 26 18 33 0 8 5 11 12 7 7 -4 8 -3
4 4 -4 7 -13 12 -21 12 -8 0 -21 10 -30 23 -12 17 -25 22 -60 22 -29 0 -45 4
-45 12 0 7 -11 19 -23 28 -35 23 -52 81 -38 132 6 22 19 44 27 47 25 10 81 -4
98 -23 13 -15 14 -20 1 -45 -11 -20 -11 -27 -2 -24 6 2 23 25 36 51 l23 47
-26 41 c-15 22 -43 47 -64 57 -20 9 -39 19 -42 22 -8 8 -62 8 -105 -1z"/>
<path d="M6190 1845 c0 -26 34 -53 45 -35 8 13 -10 46 -30 54 -11 4 -15 -1
-15 -19z"/>
<path d="M6332 1838 c-7 -7 -12 -19 -12 -28 0 -31 -90 -178 -124 -201 -16 -12
3 -26 29 -21 14 2 32 -1 40 -8 17 -14 20 -82 5 -111 -15 -27 -6 -24 28 11 17
17 38 30 47 30 14 0 16 6 11 33 -4 17 -9 43 -11 57 -5 40 17 143 37 172 10 14
18 31 18 38 0 6 5 8 10 5 6 -3 10 -1 10 4 0 6 -9 11 -20 11 -11 0 -20 5 -20
10 0 14 -33 13 -48 -2z"/>
<path d="M6875 1839 c-10 -15 3 -25 16 -12 7 7 7 13 1 17 -6 3 -14 1 -17 -5z"/>
<path d="M6892 1790 c0 -14 2 -19 5 -12 2 6 2 18 0 25 -3 6 -5 1 -5 -13z"/>
<path d="M6453 1785 c-31 -13 -65 -54 -70 -84 -10 -66 -11 -101 -2 -133 8 -30
15 -38 34 -38 13 0 30 -2 38 -6 11 -4 16 7 20 44 3 27 15 66 26 86 12 20 24
54 27 77 5 32 3 43 -12 54 -23 17 -22 17 -61 0z"/>
<path d="M7443 1753 c-30 -4 -33 -8 -33 -37 0 -61 57 -104 98 -73 7 5 12 32
12 63 0 59 4 57 -77 47z"/>
<path d="M6755 1700 c-3 -5 -1 -10 4 -10 6 0 11 5 11 10 0 6 -2 10 -4 10 -3 0
-8 -4 -11 -10z"/>
<path d="M6730 1631 c0 -5 5 -13 10 -16 6 -3 10 -2 10 4 0 5 -4 13 -10 16 -5
3 -10 2 -10 -4z"/>
<path d="M7341 1604 c-12 -19 -17 -33 -13 -30 15 9 71 -33 78 -59 9 -38 -4
-74 -31 -87 -32 -14 -32 -26 1 -38 18 -7 33 -6 55 5 29 15 29 15 17 -4 -6 -11
-15 -18 -18 -16 -3 2 -16 -3 -30 -11 -24 -13 -24 -13 13 -8 23 3 37 1 37 -5 0
-11 -23 -15 -73 -12 -33 1 -46 -22 -25 -47 16 -19 52 -91 54 -107 0 -5 6 -30
13 -55 12 -41 12 -218 0 -260 -2 -9 4 -16 18 -18 18 -3 23 3 27 30 10 70 27
339 21 348 -9 15 -12 79 -3 74 4 -3 8 10 7 28 -1 32 -1 32 -10 8 -6 -18 -7
-12 -3 20 4 25 6 55 5 68 0 12 3 22 8 22 11 0 21 25 28 72 5 40 -4 48 -70 63
-16 3 -39 17 -51 30 -13 14 -26 25 -29 25 -3 0 -14 -16 -26 -36z"/>
<path d="M6851 1596 c-9 -10 -8 -15 4 -20 10 -4 15 1 15 14 0 24 -4 25 -19 6z"/>
<path d="M6560 1581 c0 -5 7 -11 15 -15 8 -3 15 -13 16 -23 0 -16 1 -15 8 2 5
11 4 25 -1 33 -12 14 -38 16 -38 3z"/>
<path d="M6236 1513 c4 -13 -3 -29 -18 -44 l-23 -23 25 16 c28 17 37 45 21 61
-7 7 -8 4 -5 -10z"/>
<path d="M6170 1496 c0 -9 5 -16 10 -16 6 0 10 4 10 9 0 6 -4 13 -10 16 -5 3
-10 -1 -10 -9z"/>
<path d="M6380 1471 c-47 -14 -56 -21 -68 -53 -26 -69 7 -116 88 -125 29 -4
40 -1 40 9 0 10 24 13 111 13 63 -1 113 -5 117 -11 14 -21 38 -22 38 -3 0 11
-7 19 -16 19 -12 1 -11 3 4 15 17 13 17 15 2 30 -9 9 -16 21 -16 26 0 5 -5 9
-11 9 -6 0 -24 11 -41 25 -16 14 -42 28 -56 32 -15 3 -29 10 -32 14 -11 17
-106 17 -160 0z"/>
<path d="M6220 1420 c-8 -5 -30 -10 -49 -10 l-34 0 6 -60 c3 -34 1 -75 -3 -93
-4 -18 -11 -49 -15 -69 -6 -36 -5 -38 21 -38 15 0 38 -10 51 -22 14 -13 39
-23 61 -25 77 -5 223 -47 239 -69 6 -9 16 -13 22 -10 6 4 13 -5 17 -21 8 -33
33 -65 45 -57 5 3 7 10 3 15 -3 5 -10 7 -15 3 -6 -3 -9 0 -8 7 1 8 -3 27 -10
44 -15 37 -6 96 20 127 15 16 32 23 65 24 27 1 44 -3 45 -10 0 -6 4 -2 9 9 8
19 9 19 9 -2 1 -12 6 -25 12 -29 21 -13 -1 47 -24 67 -67 57 -143 71 -232 45
-54 -17 -143 -14 -174 6 -28 17 -46 73 -42 131 3 51 3 51 -19 37z"/>
<path d="M6966 1394 c-22 -21 -20 -27 4 -12 11 7 20 16 20 20 0 12 -7 10 -24
-8z"/>
<path d="M7038 1398 c23 -6 42 -17 42 -24 0 -7 4 -15 9 -18 5 -4 6 5 2 21 -7
25 -12 28 -52 30 l-44 1 43 -10z"/>
<path d="M7118 1374 c-4 -15 0 -20 19 -22 13 -1 40 -13 61 -27 20 -14 43 -25
52 -25 8 0 -9 16 -37 35 -29 19 -59 35 -67 35 -8 0 -16 6 -18 12 -3 7 -7 3
-10 -8z"/>
<path d="M7080 1220 c-22 -6 -20 -7 15 -12 46 -6 54 -3 28 10 -10 5 -29 6 -43
2z"/>
<path d="M7318 1191 c-3 -32 0 -42 13 -46 19 -6 52 -52 45 -63 -2 -4 2 -13 10
-20 12 -11 14 -9 14 8 0 20 -23 72 -59 131 l-19 31 -4 -41z"/>
<path d="M6832 1144 c-12 -8 -22 -22 -22 -31 0 -20 -53 -104 -89 -142 -42 -44
-61 -70 -61 -84 0 -6 5 -4 11 6 10 17 54 23 75 9 34 -22 42 -77 19 -122 -15
-29 -4 -44 12 -16 4 8 21 22 38 30 l30 15 0 120 c0 112 2 121 27 156 24 35 25
38 10 56 -20 23 -22 23 -50 3z"/>
<path d="M7125 1138 c-79 -14 -79 -14 -56 -46 17 -25 19 -36 11 -89 -4 -34
-16 -74 -26 -89 -10 -17 -12 -24 -4 -16 49 43 106 -41 71 -106 -13 -24 -8 -42
12 -42 12 0 26 -13 111 -103 36 -39 50 -47 67 -42 14 5 19 13 16 26 -3 10 -2
18 1 16 4 -2 22 14 41 35 18 21 28 38 21 38 -7 0 -25 14 -40 30 -22 24 -36 30
-68 30 -32 0 -41 4 -45 21 -3 11 -14 23 -25 26 -28 7 -42 85 -24 141 13 40 16
42 52 42 44 0 80 -25 83 -57 2 -32 25 -10 33 32 5 27 0 43 -23 77 -16 23 -37
47 -48 53 -11 5 -27 14 -35 20 -20 13 -64 14 -125 3z"/>
<path d="M6927 1060 c-40 -32 -63 -131 -45 -197 6 -24 15 -33 39 -38 35 -8 48
4 49 45 0 14 14 52 30 85 32 64 37 94 18 113 -18 18 -62 14 -91 -8z"/>
<path d="M6062 1028 c-18 -138 -22 -179 -20 -213 3 -38 5 -40 36 -41 42 -1 82
-23 82 -44 0 -12 11 -17 43 -18 25 -2 56 -12 76 -27 33 -23 35 -23 48 -6 7 10
15 38 18 62 3 24 8 56 11 71 3 16 -4 56 -16 96 l-21 67 -42 -3 c-71 -7 -65
-20 10 -25 19 -1 25 -63 9 -95 -29 -56 -119 -71 -170 -27 -28 24 -29 30 -30
108 -1 78 -8 107 -25 107 -4 0 -8 -6 -9 -12z"/>
<path d="M7006 858 c-12 -45 -7 -66 13 -61 11 3 18 12 16 21 -2 10 -4 27 -4
40 -1 12 -5 22 -10 22 -5 0 -11 -10 -15 -22z"/>
<path d="M6710 840 c0 -5 7 -10 15 -10 8 0 15 5 15 10 0 6 -7 10 -15 10 -8 0
-15 -4 -15 -10z"/>
<path d="M6655 831 c-6 -11 33 -56 42 -47 3 3 -4 17 -15 31 -11 14 -23 21 -27
16z"/>
<path d="M7376 813 c-6 -14 -5 -15 5 -6 7 7 10 15 7 18 -3 3 -9 -2 -12 -12z"/>
<path d="M6720 795 c-11 -13 -10 -14 4 -9 9 3 16 10 16 15 0 13 -6 11 -20 -6z"/>
<path d="M6915 774 c-63 -13 -92 -28 -108 -56 -24 -42 -21 -73 11 -109 25 -28
34 -32 78 -31 167 3 214 6 214 12 0 16 49 -4 58 -23 8 -18 9 -12 7 27 -2 43
-7 53 -46 87 -49 43 -125 84 -151 80 -9 -1 -19 3 -23 9 -3 5 -9 9 -13 9 -4 -1
-16 -3 -27 -5z"/>
<path d="M6685 760 c-3 -5 -2 -10 4 -10 5 0 13 5 16 10 3 6 2 10 -4 10 -5 0
-13 -4 -16 -10z"/>
<path d="M6710 720 c-8 -5 -30 -10 -49 -10 l-34 0 7 -47 c10 -66 10 -70 -9
-141 -16 -66 -9 -97 19 -86 7 3 25 -9 39 -25 17 -21 35 -31 53 -31 29 0 77
-13 132 -36 18 -8 42 -14 53 -14 11 0 35 -14 52 -32 18 -18 38 -31 46 -30 7 2
10 -1 7 -6 -3 -5 1 -18 10 -28 15 -18 15 -18 6 1 -13 30 -15 121 -3 144 30 56
95 70 138 29 13 -12 23 -16 23 -10 0 7 -4 12 -10 12 -5 0 -7 6 -4 13 6 17 -40
59 -94 87 -35 18 -52 21 -95 16 -130 -16 -157 -18 -157 -9 0 5 -13 8 -28 5
-25 -3 -32 2 -52 35 -18 29 -23 53 -23 106 -1 70 -2 73 -27 57z"/>
<path d="M6533 678 c-6 -18 -17 -47 -23 -63 -11 -27 -10 -34 14 -69 l26 -38
10 28 c20 50 23 111 9 143 -17 39 -23 39 -36 -1z"/>
<path d="M6414 626 c3 -14 1 -28 -5 -31 -6 -4 -8 -13 -5 -21 3 -7 0 -16 -6
-20 -6 -4 -8 -3 -4 4 3 6 2 13 -3 16 -25 16 -14 -115 12 -141 19 -19 73 -21
90 -4 10 10 5 12 -20 8 -23 -4 -40 1 -58 15 -22 17 -25 25 -19 56 4 21 9 42
13 47 6 10 7 16 10 36 0 5 4 8 9 6 4 -3 8 5 8 18 1 13 -5 26 -13 29 -12 5 -14
1 -9 -18z"/>
<path d="M6123 596 c-49 -16 -63 -25 -62 -41 0 -43 51 -75 121 -75 50 0 86 81
54 123 -17 21 -35 20 -113 -7z"/>
<path d="M6270 453 c-8 -3 -29 -11 -45 -18 -52 -23 -189 -18 -206 8 -4 5 -6
-3 -6 -18 0 -14 5 -29 12 -32 19 -7 38 -59 31 -86 -3 -13 -17 -29 -32 -35 -14
-7 -24 -18 -21 -25 7 -21 60 -7 106 29 24 19 54 34 65 34 12 0 30 7 40 15 35
27 96 19 150 -20 45 -32 96 -92 96 -113 0 -5 7 -15 15 -22 8 -7 15 -23 15 -36
0 -13 4 -24 9 -24 5 0 12 -18 16 -40 7 -39 8 -40 48 -40 23 0 51 -7 61 -15 14
-11 46 -15 112 -15 l92 0 6 63 c6 65 6 68 -12 133 -11 37 -16 42 -48 47 -37 6
-74 -6 -74 -24 0 -5 10 -9 23 -8 37 3 58 -1 53 -10 -3 -5 1 -14 9 -21 13 -10
13 -16 0 -48 -32 -78 -102 -96 -165 -43 l-35 29 2 87 c2 52 -2 96 -9 109 -7
11 -11 33 -9 48 2 25 1 26 -23 15 -14 -7 -26 -15 -26 -19 0 -4 -26 -19 -57
-34 l-56 -27 -22 26 c-11 15 -28 27 -37 27 -12 0 -19 12 -24 37 -8 43 -32 72
-54 66z"/>
<path d="M7330 392 c-14 -5 -34 -30 -35 -44 0 -18 -54 -96 -89 -129 -24 -23
-36 -41 -31 -49 6 -9 9 -9 16 1 7 11 9 11 9 -1 0 -8 10 -20 22 -25 25 -11 43
-73 33 -112 -7 -28 -8 -28 43 -3 l42 20 -20 53 c-19 52 -19 53 5 147 2 8 4 22
4 31 1 9 14 31 30 48 l28 30 -21 19 c-12 11 -28 17 -36 14z"/>
<path d="M7393 268 c-38 -47 -52 -136 -31 -189 14 -32 15 -33 25 -14 6 12 14
56 17 99 4 43 8 81 11 85 2 4 0 13 -4 19 -6 10 -10 10 -18 0z"/>
<path d="M6117 252 c-11 -12 -14 -30 -11 -62 4 -36 3 -41 -6 -27 -12 19 -94
25 -105 7 -4 -6 7 -23 22 -39 16 -15 37 -46 47 -68 23 -52 49 -63 147 -63 94
0 94 1 101 119 4 69 2 75 -23 102 -45 48 -135 34 -159 -25 -7 -17 -9 -18 -9
-3 -1 10 6 31 14 47 17 33 7 40 -18 12z m123 -57 c23 -27 -10 -95 -46 -95 -13
0 -13 2 0 16 9 8 16 23 16 32 -1 14 -3 14 -12 -3 -11 -19 -13 -17 -19 15 -4
19 -5 38 -3 42 9 14 51 9 64 -7z"/>
<path d="M6314 251 c23 -25 46 -85 46 -118 0 -13 5 -23 11 -23 8 0 8 -4 1 -13
-5 -6 -13 -31 -17 -54 l-7 -43 61 0 c34 0 61 3 61 8 0 25 -42 147 -64 185 -32
54 -42 63 -81 73 l-30 7 19 -22z"/>
</g>
</svg>
